<svg xmlns="http://www.w3.org/2000/svg" viewBox="0 0 492.56 99.11"><defs><style>.cls-1{fill:#1b75bc;}.cls-2{fill:#333;}</style></defs><title>Asset 1</title><g id="Layer_2" data-name="Layer 2"><g id="Layer_1-2" data-name="Layer 1"><path class="cls-1" d="M470,0c-.42,0-.83,0-1.24,0-15.6.8-25.51,17.17-19.66,31.66l19.12,47.4a1.85,1.85,0,0,0,1.72,1.16h0a1.87,1.87,0,0,0,1.72-1.16l19.22-47.36c5.88-14.49-4-30.91-19.65-31.7Q470.59,0,470,0Z"/><path class="cls-1" d="M36,64.92q0,7.5-5.42,11.77T15.62,81Q6.08,81,0,78V69.3a42.63,42.63,0,0,0,8.17,2.85,34.82,34.82,0,0,0,8.06,1c3.64,0,6.33-.7,8.06-2.08a6.78,6.78,0,0,0,2.6-5.58,7,7,0,0,0-2.39-5.35Q22.12,58,14.66,55,7,51.87,3.81,47.88A15.1,15.1,0,0,1,.65,38.26a13.48,13.48,0,0,1,5-11.08q5-4,13.43-4a39.48,39.48,0,0,1,16.08,3.54l-2.93,7.5A35.15,35.15,0,0,0,18.85,31c-3,0-5.23.65-6.77,1.94a6.39,6.39,0,0,0-2.31,5.14,7.29,7.29,0,0,0,.92,3.75,9.43,9.43,0,0,0,3,2.94,51.44,51.44,0,0,0,7.62,3.65,41.78,41.78,0,0,1,9.08,4.81,14.24,14.24,0,0,1,4.23,5A15.27,15.27,0,0,1,36,64.92Z"/><path class="cls-1" d="M57.84,73.65a22.07,22.07,0,0,0,6.61-1v6.81a18.4,18.4,0,0,1-3.86,1.09,26.3,26.3,0,0,1-4.91.45Q42.84,81,42.83,67.42V44.49H37v-4l6.23-3.31,3.07-9h5.58v9.46H64v6.85H51.91V67.26a6.4,6.4,0,0,0,1.64,4.83A6,6,0,0,0,57.84,73.65Z"/><path class="cls-1" d="M99,80.19l-1.27-5.58h-.46a12.83,12.83,0,0,1-5.37,4.65A17.92,17.92,0,0,1,84,81q-7.74,0-11.54-3.85T68.63,65.45V37.64h9.12V63.88c0,3.25.66,5.7,2,7.33s3.42,2.44,6.27,2.44q5.69,0,8.36-3.41t2.67-11.4V37.64h9.08V80.19Z"/><path class="cls-1" d="M129.43,81q-8,0-12.43-5.77T112.54,59q0-10.45,4.52-16.29t12.52-5.82q8.38,0,12.77,6.19h.46a55,55,0,0,1-.65-7.23V20.34h9.08V80.19h-7.08l-1.58-5.58h-.42Q137.81,81,129.43,81Zm2.42-7.31c3.72,0,6.42-1.05,8.12-3.14s2.56-5.48,2.61-10.17V59.07q0-8-2.61-11.42t-8.2-3.39a8.29,8.29,0,0,0-7.34,3.87q-2.58,3.85-2.58,11t2.5,10.79A8.46,8.46,0,0,0,131.85,73.65Z"/><path class="cls-1" d="M178.8,81q-9.93,0-15.52-5.79t-5.6-16q0-10.42,5.2-16.38t14.27-6q8.41,0,13.3,5.11t4.89,14.08V61H167q.19,6.19,3.35,9.52t8.88,3.33a32.36,32.36,0,0,0,7-.71,36.07,36.07,0,0,0,7-2.37v7.35a27.62,27.62,0,0,1-6.7,2.23A40.59,40.59,0,0,1,178.8,81Zm-1.65-37.24a9.08,9.08,0,0,0-6.91,2.73c-1.73,1.82-2.76,4.48-3.1,8h19.32c-.06-3.51-.9-6.17-2.54-8A8.71,8.71,0,0,0,177.15,43.72Z"/><path class="cls-1" d="M239.1,80.19H230V54q0-4.92-2-7.35t-6.29-2.42q-5.73,0-8.38,3.39T210.71,59v21.2h-9V37.64h7.08L210,43.22h.46a12.58,12.58,0,0,1,5.46-4.69,18.37,18.37,0,0,1,7.85-1.65q15.32,0,15.31,15.57Z"/><path class="cls-1" d="M263.58,73.65a22.08,22.08,0,0,0,6.62-1v6.81a18.4,18.4,0,0,1-3.86,1.09,26.3,26.3,0,0,1-4.91.45q-12.84,0-12.85-13.54V44.49h-5.8v-4L249,37.18l3.07-9h5.58v9.46h12.12v6.85H257.66V67.26a6.4,6.4,0,0,0,1.64,4.83A6,6,0,0,0,263.58,73.65Z"/><path class="cls-2" d="M301,80.19,280,28.26h-.3Q280,33,280,38V80.19h-3.77V24h6.08l19.93,49.47h.23L322.42,24h5.92V80.19h-4V37.57c0-3,.16-6.05.46-9.23h-.3l-21,51.85Z"/><path class="cls-2" d="M364.72,80.19l-1-6.62h-.31A19.86,19.86,0,0,1,357,79.28,17.26,17.26,0,0,1,349.1,81q-6.15,0-9.58-3.16t-3.42-8.73a10.77,10.77,0,0,1,5.1-9.5Q346.29,56.18,356,56l8-.23V53q0-6-2.42-9c-1.62-2-4.22-3-7.81-3a26.16,26.16,0,0,0-12,3.23l-1.43-3.3a31.83,31.83,0,0,1,13.62-3.24q6.89,0,10.29,3.58c2.27,2.39,3.4,6.1,3.4,11.16V80.19Zm-15.39-2.7q6.69,0,10.56-3.82T363.76,63V58.92l-7.31.3q-8.81.44-12.56,2.75a7.92,7.92,0,0,0-3.75,7.25,7.81,7.81,0,0,0,2.4,6.1A9.77,9.77,0,0,0,349.33,77.49Z"/><path class="cls-2" d="M395,81q-9.66,0-14.08-7.24h-.27l.12,3.24q.15,2.83.15,6.23V99.11h-3.8V38.38h3.23l.73,6h.23q4.31-6.78,13.77-6.77,8.46,0,12.9,5.56t4.45,16.17q0,10.31-4.68,16T395,81Zm-.08-3.39a11.64,11.64,0,0,0,9.95-4.77q3.51-4.77,3.52-13.35Q408.4,41,395.09,41q-7.3,0-10.73,4t-3.43,13.1v1.23q0,9.81,3.29,14T394.93,77.57Z"/><path class="cls-2" d="M446,69.3a9.94,9.94,0,0,1-4.27,8.64c-2.85,2-6.88,3-12.12,3q-8.39,0-13.3-2.58V74.26a29.25,29.25,0,0,0,13.3,3.16q6.19,0,9.41-2.06a6.26,6.26,0,0,0,3.21-5.48,6.68,6.68,0,0,0-2.56-5.31q-2.55-2.16-8.4-4.23a47.79,47.79,0,0,1-8.81-3.91,12.13,12.13,0,0,1-3.83-3.69,9.25,9.25,0,0,1-1.29-5,8.57,8.57,0,0,1,4-7.42q3.94-2.73,11-2.73a32.83,32.83,0,0,1,12.84,2.54l-1.42,3.46A30.16,30.16,0,0,0,432.31,41a16.54,16.54,0,0,0-8.12,1.69,5.19,5.19,0,0,0-3,4.69,6.52,6.52,0,0,0,2.33,5.24c1.55,1.3,4.58,2.77,9.09,4.38a45.74,45.74,0,0,1,8.24,3.67,12.11,12.11,0,0,1,3.86,3.72A9,9,0,0,1,446,69.3Z"/></g></g></svg>