<?xml version="1.0" encoding="utf-8"?>
<!-- Generator: Adobe Illustrator 23.0.1, SVG Export Plug-In . SVG Version: 6.00 Build 0)  -->
<svg version="1.1" id="Laag_1" xmlns="http://www.w3.org/2000/svg" xmlns:xlink="http://www.w3.org/1999/xlink" x="0px" y="0px"
	 viewBox="0 0 231.07 241.12" style="enable-background:new 0 0 231.07 241.12;" xml:space="preserve">
<style type="text/css">
	.st0{fill:#343434;}
	.st1{fill:#FFFFFF;}
</style>
<g>
	<path class="st0" d="M175.19,57.25c-0.14-0.69-0.75-1.19-1.46-1.19h-69.38c-0.21,0-0.42,0.04-0.62,0.13L57.44,77.06h-0.1
		c-0.83,0-1.5,0.67-1.5,1.5v105c0,0.83,0.67,1.5,1.5,1.5h68c0.43,0,0.82-0.18,1.09-0.48L174,161.13c0.51-0.25,0.84-0.77,0.84-1.35
		V58.53C175.14,58.18,175.29,57.72,175.19,57.25z M77.85,182.06h-19v-102h19V182.06z M64.75,77.06l39.93-18h15.63l-39.93,18H64.75z
		 M100.85,182.06h-20v-102h20V182.06z M87.68,77.06l39.93-18h15.63l-39.93,18H87.68z M123.85,182.06h-20v-101h20V182.06z
		 M126.23,77.06H110.6l39.93-18h16.14L126.23,77.06z M171.85,158.85l-45,22.18v-101c0.11-0.02,0.21-0.05,0.31-0.1l31.95-14.22
		l12.74-5.62V158.85z"/>
	<path class="st1" d="M107.86,91.06h11c0.83,0,1.5,0.67,1.5,1.5s-0.67,1.5-1.5,1.5h-11c-0.83,0-1.5-0.67-1.5-1.5
		S107.03,91.06,107.86,91.06z M107.86,95.06h11c0.83,0,1.5,0.67,1.5,1.5s-0.67,1.5-1.5,1.5h-11c-0.83,0-1.5-0.67-1.5-1.5
		S107.03,95.06,107.86,95.06z M114.86,109.06v44c0,0.83-0.67,1.5-1.5,1.5s-1.5-0.67-1.5-1.5v-44c0-0.83,0.67-1.5,1.5-1.5
		S114.86,108.23,114.86,109.06z M107.86,163.06h11c0.83,0,1.5,0.67,1.5,1.5s-0.67,1.5-1.5,1.5h-11c-0.83,0-1.5-0.67-1.5-1.5
		S107.03,163.06,107.86,163.06z M107.86,167.06h11c0.83,0,1.5,0.67,1.5,1.5s-0.67,1.5-1.5,1.5h-11c-0.83,0-1.5-0.67-1.5-1.5
		S107.03,167.06,107.86,167.06z"/>
	<path class="st0" d="M139.38,125.77c0.19,0,0.39-0.04,0.58-0.12l24.54-10.84c0.73-0.32,1.06-1.17,0.74-1.91
		c-0.32-0.73-1.18-1.06-1.9-0.74L138.8,123c-0.73,0.32-1.06,1.17-0.74,1.91C138.3,125.45,138.82,125.77,139.38,125.77z"/>
	<path class="st0" d="M145.8,117.16c0.19,0,0.39-0.04,0.58-0.12l10.91-4.82c0.73-0.32,1.06-1.17,0.74-1.91
		c-0.32-0.73-1.18-1.06-1.9-0.74l-10.91,4.82c-0.73,0.32-1.06,1.17-0.74,1.91C144.72,116.83,145.25,117.16,145.8,117.16z"/>
	<path class="st0" d="M156.13,125.94l-10.91,4.82c-0.73,0.32-1.06,1.17-0.74,1.91c0.24,0.54,0.77,0.86,1.32,0.86
		c0.19,0,0.39-0.04,0.58-0.12l10.91-4.82c0.73-0.32,1.06-1.17,0.74-1.91C157.71,125.95,156.86,125.62,156.13,125.94z"/>
	<path class="st0" d="M139.38,131.06c0.19,0,0.39-0.04,0.58-0.12l24.54-10.84c0.73-0.32,1.06-1.17,0.74-1.91
		c-0.32-0.73-1.17-1.06-1.9-0.74l-24.54,10.84c-0.73,0.32-1.06,1.17-0.74,1.91C138.3,130.74,138.82,131.06,139.38,131.06z"/>
	<path class="st0" d="M107.86,98.06h11c0.83,0,1.5-0.67,1.5-1.5s-0.67-1.5-1.5-1.5h-11c-0.83,0-1.5,0.67-1.5,1.5
		S107.03,98.06,107.86,98.06z"/>
	<path class="st0" d="M107.86,94.06h11c0.83,0,1.5-0.67,1.5-1.5s-0.67-1.5-1.5-1.5h-11c-0.83,0-1.5,0.67-1.5,1.5
		S107.03,94.06,107.86,94.06z"/>
	<path class="st0" d="M107.86,170.06h11c0.83,0,1.5-0.67,1.5-1.5s-0.67-1.5-1.5-1.5h-11c-0.83,0-1.5,0.67-1.5,1.5
		S107.03,170.06,107.86,170.06z"/>
	<path class="st0" d="M107.86,166.06h11c0.83,0,1.5-0.67,1.5-1.5s-0.67-1.5-1.5-1.5h-11c-0.83,0-1.5,0.67-1.5,1.5
		S107.03,166.06,107.86,166.06z"/>
	<path class="st0" d="M84.86,98.06h11c0.83,0,1.5-0.67,1.5-1.5s-0.67-1.5-1.5-1.5h-11c-0.83,0-1.5,0.67-1.5,1.5
		S84.03,98.06,84.86,98.06z"/>
	<path class="st0" d="M84.86,94.06h11c0.83,0,1.5-0.67,1.5-1.5s-0.67-1.5-1.5-1.5h-11c-0.83,0-1.5,0.67-1.5,1.5
		S84.03,94.06,84.86,94.06z"/>
	<path class="st0" d="M84.86,170.06h11c0.83,0,1.5-0.67,1.5-1.5s-0.67-1.5-1.5-1.5h-11c-0.83,0-1.5,0.67-1.5,1.5
		S84.03,170.06,84.86,170.06z"/>
	<path class="st0" d="M84.86,166.06h11c0.83,0,1.5-0.67,1.5-1.5s-0.67-1.5-1.5-1.5h-11c-0.83,0-1.5,0.67-1.5,1.5
		S84.03,166.06,84.86,166.06z"/>
	<path class="st0" d="M62.86,98.06h11c0.83,0,1.5-0.67,1.5-1.5s-0.67-1.5-1.5-1.5h-11c-0.83,0-1.5,0.67-1.5,1.5
		S62.03,98.06,62.86,98.06z"/>
	<path class="st0" d="M62.86,94.06h11c0.83,0,1.5-0.67,1.5-1.5s-0.67-1.5-1.5-1.5h-11c-0.83,0-1.5,0.67-1.5,1.5
		S62.03,94.06,62.86,94.06z"/>
	<path class="st0" d="M62.86,170.06h11c0.83,0,1.5-0.67,1.5-1.5s-0.67-1.5-1.5-1.5h-11c-0.83,0-1.5,0.67-1.5,1.5
		S62.03,170.06,62.86,170.06z"/>
	<path class="st0" d="M62.86,166.06h11c0.83,0,1.5-0.67,1.5-1.5s-0.67-1.5-1.5-1.5h-11c-0.83,0-1.5,0.67-1.5,1.5
		S62.03,166.06,62.86,166.06z"/>
	<path class="st0" d="M65.86,109.06v44c0,0.83,0.67,1.5,1.5,1.5s1.5-0.67,1.5-1.5v-44c0-0.83-0.67-1.5-1.5-1.5
		S65.86,108.23,65.86,109.06z"/>
	<path class="st0" d="M88.86,109.06v44c0,0.83,0.67,1.5,1.5,1.5s1.5-0.67,1.5-1.5v-44c0-0.83-0.67-1.5-1.5-1.5
		S88.86,108.23,88.86,109.06z"/>
	<path class="st0" d="M111.86,109.06v44c0,0.83,0.67,1.5,1.5,1.5s1.5-0.67,1.5-1.5v-44c0-0.83-0.67-1.5-1.5-1.5
		S111.86,108.23,111.86,109.06z"/>
</g>
</svg>
