<?xml version="1.0" encoding="utf-8"?>
<!-- Generator: Adobe Illustrator 23.0.1, SVG Export Plug-In . SVG Version: 6.00 Build 0)  -->
<svg version="1.1" id="Laag_1" xmlns="http://www.w3.org/2000/svg" xmlns:xlink="http://www.w3.org/1999/xlink" x="0px" y="0px"
	 viewBox="0 0 231.07 241.12" style="enable-background:new 0 0 231.07 241.12;" xml:space="preserve">
<style type="text/css">
	.st0{fill:none;stroke:#1D1D1B;stroke-miterlimit:10;}
	.st1{fill:#1D1D1B;}
</style>
<g>
	<rect x="59.93" y="135.63" class="st0" width="107.18" height="10.64"/>
	<path class="st0" d="M80.52,165.48h-8.76H59.93v15.76h11.83h8.76h86.59v-15.76H80.52z M78.62,179.35h-4.97v-11.98h4.97V179.35z"/>
	
		<rect x="77.38" y="105.57" transform="matrix(0.5106 -0.8598 0.8598 0.5106 -47.5469 140.8251)" class="st0" width="45.11" height="13.21"/>
	<path class="st0" d="M84.54,148.13h-6.15h-6.15h-12.3v15.77h12.3h6.15h6.15h82.57v-15.77H84.54z M76.49,162.01h-2.37v-11.98h2.37
		V162.01z M82.64,162.01h-2.37v-11.98h2.37V162.01z"/>
	<g>
		<rect x="119.31" y="122.73" class="st1" width="10.65" height="5.68"/>
		<path class="st1" d="M129.96,122.73h-10.65v5.68h10.65V122.73L129.96,122.73z"/>
	</g>
	<path class="st0" d="M119.31,69.49v47.56v5.68v11.6h10.65v-11.6v-5.68V69.49H119.31z M128.07,118.94v1.89h-6.86v-1.89H128.07z"/>
	<path class="st0" d="M132.85,69.49v4.14v9.82v50.87h10.65V83.45v-9.82v-4.14H132.85z M141.61,75.53v6.03h-6.87v-6.03H141.61z"/>
</g>
</svg>
