<?xml version="1.0" encoding="utf-8"?>
<!-- Generator: Adobe Illustrator 23.0.1, SVG Export Plug-In . SVG Version: 6.00 Build 0)  -->
<svg version="1.1" id="Laag_1" xmlns="http://www.w3.org/2000/svg" xmlns:xlink="http://www.w3.org/1999/xlink" x="0px" y="0px"
	 viewBox="0 0 231.07 241.12" style="enable-background:new 0 0 231.07 241.12;" xml:space="preserve">
<style type="text/css">
	.st0{fill:#343434;}
</style>
<g>
	<path class="st0" d="M176.24,122.76c-0.23-0.14-0.48-0.21-0.74-0.21l-5.65-2.09c0.04-0.13,0.07-0.26,0.07-0.4l0.22-14.72l4.01-1.97
		c0.48-0.23,0.78-0.71,0.78-1.24l0.12-20.29c0-0.48-0.24-0.93-0.65-1.19c-0.21-0.13-0.45-0.2-0.7-0.21l-44.41-16.42
		c-0.32-0.12-0.67-0.11-0.99,0.02L63.53,91.39c-0.21,0.05-0.4,0.15-0.57,0.29c-0.06,0.04-0.11,0.1-0.15,0.15
		c-0.03,0.03-0.07,0.06-0.1,0.09c-0.01,0.02-0.02,0.03-0.03,0.05c-0.01,0.01-0.02,0.02-0.02,0.04c-4.29,6.05-4.03,11.67-3.05,15.33
		c0.11,0.42,0.24,0.81,0.37,1.19l-2.09,0.88c-0.49,0.21-0.81,0.69-0.82,1.22c0,0.12,0.02,0.24,0.05,0.35
		c-7.02,11.17,0.64,20.74,0.72,20.83c0.14,0.16,0.31,0.3,0.5,0.38l5.7,2.59c-3.79,5.79-3.53,11.12-2.59,14.64
		c1.06,3.96,3.14,6.48,3.23,6.59c0.13,0.16,0.3,0.29,0.49,0.37l45.13,20.67c0.05,0.02,0.09,0.03,0.14,0.05
		c0.03,0.01,0.06,0.02,0.1,0.03c0.11,0.03,0.23,0.05,0.35,0.05s0.24-0.02,0.36-0.05c0.04-0.01,0.07-0.03,0.11-0.04
		c0.05-0.02,0.1-0.03,0.15-0.05l64.47-31.59c0.48-0.23,0.78-0.71,0.78-1.24l0.14-20.29C176.89,123.47,176.65,123.02,176.24,122.76z
		 M64.35,94.51l43.27,19.43v17.59l-42.81-19.62C63.8,110.55,58.9,103.14,64.35,94.51z M172.14,101.25l-61.72,30.23v-17.56
		l61.82-29.85L172.14,101.25z M110.84,153.6l-3.82-1.72l60.06-29.57l4.87,1.8L110.84,153.6z M105.77,149.39v-15.63l2.67,1.23
		c0.04,0.02,0.09,0.03,0.13,0.05c0.03,0.01,0.07,0.02,0.1,0.03c0.11,0.03,0.23,0.05,0.34,0.05c0.12,0,0.24-0.02,0.36-0.05
		c0.04-0.01,0.07-0.03,0.11-0.04c0.05-0.02,0.1-0.03,0.15-0.05l57.68-28.25l-0.19,12.45L105.77,149.39z M170.12,81.99L109,111.5
		L67.25,92.75l61.61-26.01L170.12,81.99z M59.52,112.43l3.31,1.48c0.01,0.02,0.03,0.03,0.03,0.04c0.13,0.16,0.3,0.28,0.49,0.37
		l39.63,18.16v16.98l-43.16-19.62C58.81,128.44,54.07,121.04,59.52,112.43z M66.2,136.62l43.29,19.43v17.6l-42.85-19.62
		C65.58,152.61,60.7,145.3,66.2,136.62z M173.97,143.36l-61.69,30.22v-17.56l61.8-29.85L173.97,143.36z"/>
	<path class="st0" d="M127.29,74.94l22.4,8.96c0.16,0.07,0.33,0.1,0.5,0.1c0.53,0,1.04-0.32,1.25-0.85
		c0.28-0.69-0.06-1.47-0.75-1.75l-22.4-8.96c-0.69-0.27-1.47,0.06-1.75,0.75C126.27,73.88,126.6,74.67,127.29,74.94z"/>
	<path class="st0" d="M119.19,78.61l22.49,9.29c0.17,0.07,0.34,0.1,0.51,0.1c0.53,0,1.03-0.31,1.24-0.83
		c0.28-0.69-0.04-1.47-0.73-1.76l-22.49-9.29c-0.69-0.28-1.47,0.04-1.76,0.73C118.17,77.54,118.5,78.32,119.19,78.61z"/>
	<path class="st0" d="M111.08,82.28l22.58,9.61c0.17,0.07,0.35,0.11,0.53,0.11c0.52,0,1.02-0.31,1.24-0.82
		c0.29-0.68-0.03-1.47-0.71-1.76l-22.58-9.61c-0.68-0.29-1.47,0.03-1.76,0.71C110.08,81.2,110.4,81.99,111.08,82.28z"/>
	<path class="st0" d="M102.97,85.94l22.67,9.93c0.18,0.08,0.36,0.11,0.54,0.11c0.52,0,1.01-0.3,1.23-0.8
		c0.3-0.68-0.01-1.47-0.69-1.77l-22.67-9.93c-0.68-0.3-1.47,0.01-1.77,0.69C101.99,84.85,102.3,85.64,102.97,85.94z"/>
	<path class="st0" d="M94.87,89.61l22.76,10.26c0.18,0.08,0.37,0.12,0.55,0.12c0.51,0,1-0.3,1.23-0.79c0.3-0.68,0-1.47-0.67-1.78
		L95.98,87.16c-0.68-0.31-1.47,0-1.78,0.67C93.89,88.51,94.19,89.31,94.87,89.61z"/>
	<path class="st0" d="M86.76,93.28l22.86,10.58c0.18,0.08,0.37,0.13,0.56,0.13c0.51,0,0.99-0.29,1.22-0.78
		c0.31-0.67,0.02-1.47-0.65-1.78L87.89,90.85c-0.67-0.31-1.47-0.02-1.78,0.65C85.8,92.17,86.09,92.96,86.76,93.28z"/>
</g>
</svg>
