<?xml version="1.0" encoding="utf-8"?>
<!-- Generator: Adobe Illustrator 23.0.1, SVG Export Plug-In . SVG Version: 6.00 Build 0)  -->
<svg version="1.1" id="Laag_1" xmlns="http://www.w3.org/2000/svg" xmlns:xlink="http://www.w3.org/1999/xlink" x="0px" y="0px"
	 viewBox="0 0 231.07 241.12" style="enable-background:new 0 0 231.07 241.12;" xml:space="preserve">
<style type="text/css">
	.st0{fill:#333333;}
</style>
<g>
	<g>
		<g>
			<g>
				<g>
					<path class="st0" d="M132.93,180.93c-0.12,0-0.25-0.02-0.37-0.06c-8.18-2.55-16.74-5.73-25.03-8.8
						c-8.25-3.06-16.79-6.23-24.9-8.76c-2.57-0.8-5.76-1.79-8.01-4.07c-5.2-5.26-2.88-13.86-0.68-19.87l19.27-52.7
						c0.7-1.91,1.57-4.29,3.44-5.89c3.5-2.99,8.48-1.98,12.89-0.6l39.93,12.5c2.15,0.67,4.2,1.65,6.19,2.6
						c1.93,0.92,3.76,1.79,5.67,2.41c0.31,0.1,0.57,0.32,0.72,0.62c0.15,0.29,0.17,0.64,0.07,0.95
						c-8.99,26.93-18.42,54.14-28.03,80.85C133.91,180.61,133.44,180.93,132.93,180.93z M102.48,81.31c-1.61,0-3.07,0.37-4.22,1.35
						c-1.38,1.18-2.1,3.13-2.73,4.86l-19.27,52.7c-1.97,5.38-4.09,13.02,0.12,17.29c1.82,1.84,4.56,2.69,6.99,3.45
						c8.18,2.55,16.74,5.73,25.03,8.8c7.87,2.92,16,5.94,23.77,8.4c9.33-25.96,18.48-52.37,27.22-78.53
						c-1.65-0.62-3.24-1.38-4.79-2.12c-2-0.95-3.88-1.85-5.86-2.47l-39.93-12.5C106.71,81.88,104.49,81.31,102.48,81.31z"/>
					<path class="st0" d="M139.53,161.55c-0.14,0-0.28-0.02-0.41-0.07c-16.57-5.88-31.82-11.27-48.41-17.09
						c-3.37-1.18-7.2-2.52-10.81-1.82c-1.93,0.37-3.8,1.6-4.87,3.2c-0.54,0.8-1.12,2.08-0.82,3.56c0.14,0.67-0.3,1.32-0.97,1.46
						c-0.66,0.13-1.32-0.3-1.46-0.97c-0.37-1.84,0.04-3.72,1.18-5.43c1.43-2.13,3.9-3.76,6.46-4.25c4.29-0.83,8.62,0.69,12.11,1.92
						c16.59,5.83,31.84,11.21,48.41,17.1c0.65,0.23,0.98,0.94,0.75,1.58C140.51,161.24,140.03,161.55,139.53,161.55z"/>
					<path class="st0" d="M86.69,138.44c-0.05,0-0.1,0-0.14-0.01c-0.68-0.08-1.17-0.69-1.09-1.37c1.99-17.15,7.41-34.23,15.68-49.39
						c0.33-0.6,1.08-0.82,1.68-0.49c0.6,0.33,0.82,1.08,0.49,1.68c-8.11,14.89-13.44,31.65-15.39,48.5
						C87.85,137.98,87.31,138.44,86.69,138.44z"/>
					<path class="st0" d="M80.93,151.48"/>
					<path class="st0" d="M136.25,169.19"/>
				</g>
			</g>
			<polygon class="st0" points="83.49,152.22 77.74,170.85 86.85,165 88.32,173.12 93.79,154.96 			"/>
			<path class="st0" d="M136.25,170.43c-0.16,0-0.32-0.03-0.47-0.09c-17.82-7.34-36.36-13.28-55.13-17.65
				c-0.67-0.15-1.08-0.82-0.92-1.49c0.15-0.67,0.83-1.08,1.48-0.92c18.89,4.4,37.57,10.38,55.51,17.77
				c0.63,0.26,0.93,0.98,0.67,1.62C137.2,170.14,136.74,170.43,136.25,170.43z"/>
		</g>
		<path class="st0" d="M63.85,133.34c-0.23,0-0.46-0.06-0.66-0.19l-9.72-6.16c-0.58-0.37-0.75-1.13-0.38-1.71
			c0.36-0.58,1.13-0.75,1.71-0.38l9.72,6.16c0.58,0.37,0.75,1.13,0.38,1.71C64.66,133.14,64.26,133.34,63.85,133.34z"/>
		<path class="st0" d="M69.24,115.41c-0.21,0-0.42-0.05-0.62-0.17c-3.14-1.81-5.77-4.42-7.6-7.55c-0.35-0.59-0.15-1.35,0.44-1.69
			c0.59-0.35,1.35-0.15,1.69,0.44c1.62,2.76,3.93,5.06,6.7,6.65c0.59,0.34,0.8,1.1,0.45,1.69
			C70.09,115.19,69.67,115.41,69.24,115.41z"/>
		<path class="st0" d="M79.68,89.05c-0.36,0-0.71-0.16-0.96-0.45c-2.41-2.95-4.07-6.49-4.78-10.23c-0.13-0.67,0.31-1.32,0.98-1.45
			c0.67-0.13,1.32,0.31,1.45,0.98c0.64,3.34,2.11,6.49,4.26,9.13c0.43,0.53,0.35,1.31-0.17,1.74
			C80.23,88.96,79.95,89.05,79.68,89.05z"/>
		<path class="st0" d="M97.63,69.31c-0.07,0-0.13,0-0.2-0.02c-0.67-0.11-1.14-0.74-1.03-1.42l0.87-5.44
			c0.11-0.67,0.76-1.13,1.42-1.03c0.67,0.11,1.14,0.74,1.03,1.42l-0.87,5.44C98.75,68.87,98.23,69.31,97.63,69.31z"/>
		<path class="st0" d="M128.54,69.64c-0.19,0-0.39-0.04-0.57-0.14c-0.61-0.31-0.84-1.06-0.53-1.67c1.46-2.82,3.54-5.37,6.01-7.36
			c0.53-0.43,1.31-0.35,1.74,0.19c0.43,0.53,0.35,1.31-0.18,1.74c-2.21,1.78-4.06,4.06-5.37,6.58
			C129.42,69.39,128.98,69.64,128.54,69.64z"/>
		<path class="st0" d="M158.43,78.49c-0.26,0-0.53-0.09-0.76-0.26c-0.54-0.42-0.64-1.2-0.22-1.74c1.47-1.89,3.39-3.43,5.56-4.46
			c0.62-0.3,1.35-0.03,1.65,0.59c0.29,0.62,0.03,1.36-0.59,1.65c-1.82,0.86-3.43,2.16-4.67,3.75
			C159.16,78.33,158.8,78.49,158.43,78.49z"/>
		<path class="st0" d="M171.03,104.43c-0.5,0-0.96-0.3-1.15-0.79c-0.25-0.64,0.07-1.35,0.71-1.6c1.99-0.77,4.07-1.32,6.18-1.63
			c0.7-0.1,1.3,0.37,1.4,1.05c0.1,0.68-0.37,1.3-1.05,1.4c-1.92,0.28-3.82,0.78-5.64,1.48
			C171.33,104.41,171.18,104.43,171.03,104.43z"/>
		<path class="st0" d="M164.78,139.32c-0.62,0-1.16-0.47-1.23-1.1c-0.08-0.68,0.41-1.29,1.09-1.37l6.71-0.75
			c0.69-0.07,1.29,0.41,1.37,1.09c0.08,0.68-0.41,1.29-1.09,1.37l-6.71,0.75C164.87,139.32,164.82,139.32,164.78,139.32z"/>
	</g>
</g>
</svg>
