<?xml version="1.0" encoding="utf-8"?>
<!-- Generator: Adobe Illustrator 23.0.1, SVG Export Plug-In . SVG Version: 6.00 Build 0)  -->
<svg version="1.1" id="Laag_1" xmlns="http://www.w3.org/2000/svg" xmlns:xlink="http://www.w3.org/1999/xlink" x="0px" y="0px"
	 viewBox="0 0 231.07 241.12" style="enable-background:new 0 0 231.07 241.12;" xml:space="preserve">
<style type="text/css">
	.st0{fill:none;stroke:#333333;stroke-width:3;stroke-miterlimit:10;}
	.st1{fill:#333333;}
	.st2{fill:#3C3C3B;}
</style>
<path class="st0" d="M236.44,331.19c-4.55,0-9.07,0.83-13.44,2.46c-4.64-9.88-12.67-26.94-12.67-26.94
	c-0.25-0.53-0.06-1.38,0.39-1.75l8.53-7c0.81-0.64,1.26-1.56,1.23-2.52c-0.03-0.92-0.49-1.78-1.28-2.39l-0.79-0.6
	c-0.7-0.53-1.61-0.83-2.56-0.83c-0.98,0-1.91,0.31-2.62,0.86l-9.61,7.56c-0.2,0.16-0.99,0.77-1.6,1.19c-0.87,0.59-1.27,1.67-1,2.69
	c0.09,0.35,0.25,0.86,0.53,1.49l1.12,2.52c0.08,0.18,0.08,0.36,0.02,0.51c-0.06,0.12-0.18,0.22-0.35,0.27l-51.71,15.35
	c-0.33,0-0.74-0.21-0.88-0.63l-4.91-14.71c-0.52-1.51-1.98-2.64-3.54-2.91l1.71-0.41c0.46-0.11,0.98-0.47,1.31-0.8
	c0.09-0.09,1.02-0.92,5.78-2.23c1.55-0.27,2.78-0.57,3.67-0.88c0.98-0.34,1.64-1.25,1.67-2.29c0.03-1.04-0.58-1.98-1.54-2.38
	c-0.9-0.37-2.17-0.74-3.4-0.99c-0.17-0.03-0.33-0.05-0.5-0.05c-0.22,0-0.44,0.03-0.65,0.09c-4.21,1.14-8.26,1.71-12.02,1.71
	c-3.93,0-6.12-0.65-6.12-0.65c-0.19-0.06-0.38-0.1-0.57-0.12c-0.36-0.03-0.87-0.06-1.33-0.06c-2.04,0-3.55,0.63-4.45,1.84
	c-1.14,1.5-0.95,3.36-0.78,4.18c-0.04,1.37,0.53,2.28,1.01,2.8c1.21,1.32,3.42,1.99,6.58,1.99c0.03,0,2.29-0.01,3.54-0.29l0,0.02
	l2.89-0.7c-0.11,0.11-0.23,0.22-0.32,0.35c-0.52,0.75-0.63,1.74-0.3,2.67l8.56,25.54c0.21,0.64-0.05,1.72-0.54,2.18l-4.3,4.06
	c-7.18-6.58-16.44-10.21-26.08-10.21c-21.39,0-38.79,17.53-38.79,39.09c0,21.55,17.4,39.08,38.79,39.08
	c19.73,0,36.26-14.89,38.5-34.63l4.34,0.23c0.53,0.1,1.07,0.15,1.64,0.15c3.28,0,6.71-1.77,7.72-3.03l41.25-50.89l7.16,16.1
	c-0.03,0.02-0.07,0.03-0.11,0.05c-11.07,7.13-17.94,19.75-17.94,32.94c0,21.55,17.4,39.08,38.79,39.08
	c21.39,0,38.79-17.53,38.79-39.08C275.24,348.73,257.83,331.19,236.44,331.19z M115.1,400.35c-16.44,0-29.81-13.49-29.81-30.08
	c0-16.59,13.37-30.08,29.81-30.08c7.17,0,14.08,2.63,19.51,7.4l-15.24,14.39c-0.06,0.06-0.1,0.15-0.15,0.21
	c-1.24-0.64-2.63-1.04-4.11-1.04c-5,0-9.06,4.09-9.06,9.12c0,5.03,4.06,9.12,9.06,9.12c4,0,7.37-2.64,8.57-6.28
	c0.02,0,0.04,0.02,0.07,0.02l20.87,1.11C142.65,389.16,130.05,400.35,115.1,400.35z M139.37,352.87c3,4.24,4.84,9.17,5.35,14.34
	l-19.2-1L139.37,352.87z M153.77,367.67c0-0.02,0.01-0.03,0.01-0.04c-0.5-7.67-3.22-14.94-7.85-21.04
	c-0.01-0.01-0.01-0.01-0.02-0.02l2.98-2.87l7.91,24.12C156.79,367.82,155.03,367.74,153.77,367.67z M155.12,339.53
	c-0.21-0.63,0.06-1.7,0.55-2.15l10.08-9.24c0.74-0.68,2.22-1.52,3.19-1.8l28.98-8.6l-35.17,44.6L155.12,339.53z M236.44,400.35
	c-16.43,0-29.81-13.49-29.81-30.08c0-9.86,4.78-19,12.78-24.63l8.59,19.32c0.14,0.32,0.36,0.58,0.6,0.81
	c-0.76,1.33-1.23,2.86-1.23,4.5c0,5.03,4.07,9.12,9.06,9.12c5,0,9.07-4.09,9.07-9.12c0-5.03-4.07-9.12-9.07-9.12
	c-0.19,0-0.36,0.04-0.54,0.05c-0.03-0.11-0.03-0.23-0.08-0.34l-8.96-19.03c3.13-1.08,6.35-1.64,9.59-1.64
	c16.44,0,29.82,13.49,29.82,30.08C266.27,386.86,252.89,400.35,236.44,400.35z"/>
<path class="st1" d="M176.21,101.26c-4.55,0-9.07,0.83-13.44,2.46c-4.64-9.88-12.67-26.94-12.67-26.94
	c-0.25-0.53-0.06-1.38,0.39-1.75l8.53-7c0.81-0.64,1.26-1.56,1.23-2.52c-0.03-0.92-0.49-1.78-1.28-2.39l-0.79-0.6
	c-0.7-0.53-1.61-0.83-2.56-0.83c-0.98,0-1.91,0.31-2.62,0.86l-9.61,7.56c-0.2,0.16-0.99,0.77-1.6,1.19c-0.87,0.59-1.27,1.67-1,2.69
	c0.09,0.35,0.25,0.86,0.53,1.49l1.12,2.52c0.08,0.18,0.08,0.36,0.02,0.51c-0.06,0.12-0.18,0.22-0.35,0.27L90.38,94.14
	c-0.33,0-0.74-0.21-0.88-0.63L84.59,78.8c-0.52-1.51-1.98-2.64-3.54-2.91l1.71-0.41c0.46-0.11,0.98-0.47,1.31-0.8
	c0.09-0.09,1.02-0.92,5.78-2.23c1.55-0.27,2.78-0.57,3.67-0.88c0.98-0.34,1.64-1.25,1.67-2.29c0.03-1.04-0.58-1.98-1.54-2.38
	c-0.9-0.37-2.17-0.74-3.4-0.99c-0.17-0.03-0.33-0.05-0.5-0.05c-0.22,0-0.44,0.03-0.65,0.09c-4.21,1.14-8.26,1.71-12.02,1.71
	c-3.93,0-6.12-0.65-6.12-0.65c-0.19-0.06-0.38-0.1-0.57-0.12c-0.36-0.03-0.87-0.06-1.33-0.06c-2.04,0-3.55,0.63-4.45,1.84
	c-1.14,1.5-0.95,3.36-0.78,4.18c-0.04,1.37,0.53,2.28,1.01,2.8c1.21,1.32,3.42,1.99,6.58,1.99c0.03,0,2.29-0.01,3.54-0.29l0,0.02
	l2.89-0.7c-0.11,0.11-0.23,0.22-0.32,0.35c-0.52,0.75-0.63,1.74-0.3,2.67l8.56,25.54c0.21,0.64-0.05,1.72-0.54,2.18l-4.3,4.06
	c-7.18-6.58-16.44-10.21-26.08-10.21c-21.39,0-38.79,17.53-38.79,39.09s17.4,39.08,38.79,39.08c19.73,0,36.26-14.89,38.5-34.63
	l4.34,0.23c0.53,0.1,1.07,0.15,1.64,0.15c3.28,0,6.71-1.77,7.72-3.03l41.25-50.89l7.16,16.1c-0.03,0.02-0.07,0.03-0.11,0.05
	c-11.07,7.13-17.94,19.75-17.94,32.94c0,21.55,17.4,39.08,38.79,39.08c21.39,0,38.79-17.53,38.79-39.08S197.6,101.26,176.21,101.26z
	 M54.86,170.42c-16.44,0-29.81-13.49-29.81-30.08c0-16.59,13.37-30.08,29.81-30.08c7.17,0,14.08,2.63,19.51,7.4l-15.24,14.39
	c-0.06,0.06-0.1,0.15-0.15,0.21c-1.24-0.64-2.63-1.04-4.11-1.04c-5,0-9.06,4.09-9.06,9.12c0,5.03,4.06,9.12,9.06,9.12
	c4,0,7.37-2.64,8.57-6.28c0.02,0,0.04,0.02,0.07,0.02l20.87,1.11C82.41,159.22,69.81,170.42,54.86,170.42z M79.13,122.93
	c3,4.24,4.84,9.17,5.35,14.34l-19.2-1L79.13,122.93z M93.53,137.74c0-0.02,0.01-0.03,0.01-0.04c-0.5-7.67-3.22-14.94-7.85-21.04
	c-0.01-0.01-0.01-0.01-0.02-0.02l2.98-2.87l7.91,24.12C96.55,137.89,94.79,137.8,93.53,137.74z M94.89,109.59
	c-0.21-0.63,0.06-1.7,0.55-2.15l10.08-9.24c0.74-0.68,2.22-1.52,3.19-1.8l28.98-8.6l-35.17,44.6L94.89,109.59z M176.21,170.42
	c-16.43,0-29.81-13.49-29.81-30.08c0-9.86,4.78-19,12.78-24.63l8.59,19.32c0.14,0.32,0.36,0.58,0.6,0.81
	c-0.76,1.33-1.23,2.86-1.23,4.5c0,5.03,4.07,9.12,9.06,9.12c5,0,9.07-4.09,9.07-9.12c0-5.03-4.07-9.12-9.07-9.12
	c-0.19,0-0.36,0.04-0.54,0.05c-0.03-0.11-0.03-0.23-0.08-0.34l-8.96-19.03c3.13-1.08,6.35-1.64,9.59-1.64
	c16.44,0,29.82,13.49,29.82,30.08C206.03,156.93,192.65,170.42,176.21,170.42z"/>
<g>
	<path d="M348.02,408.96c18.19,0,33-14.8,33-33c0-1.03-0.05-2.04-0.15-3.05l6.1-1.23c2.04,3.75,6.01,6.3,10.57,6.3
		c6.63,0,12.03-5.39,12.03-12.03c0-1.03-0.15-2.03-0.39-2.99l38.36-23.45l4.2,8.56c-9.24,5.85-15.4,16.16-15.4,27.89
		c0,18.19,14.8,33,33,33c18.19,0,33-14.8,33-33c0-18.19-14.8-32.99-33-32.99c-3.96,0-7.76,0.7-11.28,1.99l-13.13-26.78l23.13-23.13
		c1.01-1.01,1.3-2.52,0.76-3.84c-0.54-1.32-1.83-2.17-3.26-2.17h-22.16c-1.95,0-3.52,1.58-3.52,3.52c0,1.95,1.58,3.52,3.52,3.52
		h13.66l-17.87,17.87H420.2c-1.94,0-3.52,1.58-3.52,3.52c0,1.94,1.58,3.52,3.52,3.52h18.24l5.97,12.17l-38.92,23.8
		c-2.12-1.88-4.91-3.03-7.96-3.03c-0.17,0-0.33,0.02-0.5,0.03l-11.4-32.96h13.18c1.94,0,3.52-1.58,3.52-3.52
		c0-1.94-1.58-3.52-3.52-3.52H383.2l-2.23-6.45h4.58c1.94,0,3.52-1.58,3.52-3.52c0-1.94-1.58-3.52-3.52-3.52H366.5
		c-1.95,0-3.52,1.58-3.52,3.52c0,1.95,1.58,3.52,3.52,3.52h7.01l2.98,8.61l-15.92,29.34c-3.87-1.6-8.11-2.48-12.55-2.48
		c-18.19,0-33,14.8-33,32.99C315.02,394.16,329.83,408.96,348.02,408.96z M466.16,377.51c0.61,1.25,1.86,1.97,3.16,1.97
		c0.52,0,1.05-0.12,1.55-0.36c1.75-0.86,2.47-2.97,1.61-4.71l-11.32-23.08c2.57-0.85,5.31-1.32,8.15-1.32
		c14.31,0,25.95,11.64,25.95,25.95c0,14.31-11.64,25.95-25.95,25.95c-14.31,0-25.95-11.64-25.95-25.95
		c0-8.95,4.56-16.86,11.47-21.53L466.16,377.51z M397.53,360.97c2.75,0,4.98,2.24,4.98,4.98c0,2.75-2.24,4.98-4.98,4.98
		c-2.75,0-4.98-2.24-4.98-4.98C392.55,363.21,394.79,360.97,397.53,360.97z M379.61,325.13l10.78,31.17
		c-2.66,1.97-4.48,5.01-4.82,8.48l-6.09,1.23c-2.23-7.04-6.77-13.06-12.72-17.19L379.61,325.13z M363.37,355.06
		c4.18,3.08,7.4,7.37,9.15,12.36l-17.81,3.6L363.37,355.06z M348.02,350.01c3.23,0,6.31,0.6,9.17,1.68l-12.26,22.6
		c-0.65,1.2-0.55,2.67,0.26,3.77c0.67,0.91,1.73,1.43,2.83,1.43c0.23,0,0.47-0.02,0.7-0.07l25.2-5.09c0.03,0.54,0.05,1.09,0.05,1.64
		c0,14.31-11.64,25.95-25.95,25.95c-14.31,0-25.95-11.64-25.95-25.95C322.07,361.65,333.71,350.01,348.02,350.01z"/>
	<path d="M348.02,392.71c2.76,0,5.49-0.69,7.9-1.98c1.71-0.92,2.36-3.05,1.44-4.77c-0.92-1.71-3.06-2.36-4.77-1.44
		c-1.41,0.76-2.96,1.14-4.58,1.14c-4.73,0-8.75-3.37-9.56-8.02c-0.33-1.92-2.16-3.2-4.07-2.87c-1.92,0.33-3.2,2.16-2.87,4.07
		C332.92,386.88,339.85,392.71,348.02,392.71z"/>
	<path d="M334.88,372.12c0.57,0.35,1.2,0.51,1.82,0.51c1.19,0,2.35-0.6,3.02-1.69c0.1-0.16,0.2-0.33,0.31-0.49
		c1.1-1.6,0.69-3.8-0.91-4.9c-1.6-1.1-3.79-0.69-4.9,0.91c-0.18,0.27-0.36,0.54-0.53,0.81
		C332.69,368.94,333.22,371.11,334.88,372.12z"/>
	<path d="M474.51,391.65c0.46,0,0.92-0.09,1.38-0.28c7.5-3.19,11.6-11.27,9.74-19.22c-0.63-2.68-1.92-5.19-3.73-7.24
		c-1.29-1.46-3.51-1.6-4.97-0.31c-1.46,1.28-1.6,3.51-0.31,4.97c1.06,1.2,1.79,2.61,2.16,4.19c1.08,4.6-1.29,9.29-5.63,11.13
		c-1.79,0.76-2.62,2.83-1.86,4.62C471.84,390.85,473.14,391.65,474.51,391.65z"/>
	<path d="M463.21,391.55c0.3,0.12,0.6,0.23,0.91,0.33c0.37,0.12,0.74,0.18,1.11,0.18c1.47,0,2.85-0.94,3.34-2.42
		c0.61-1.84-0.39-3.84-2.24-4.45c-0.18-0.06-0.36-0.13-0.54-0.2c-1.81-0.71-3.85,0.18-4.57,1.99
		C460.5,388.8,461.4,390.84,463.21,391.55z"/>
	<path d="M408.67,320.99h2.11c1.95,0,3.52-1.58,3.52-3.52c0-1.94-1.58-3.52-3.52-3.52h-2.11c-1.95,0-3.52,1.58-3.52,3.52
		C405.15,319.41,406.73,320.99,408.67,320.99z"/>
	<path d="M432.62,296.08h1.17c1.95,0,3.52-1.58,3.52-3.52c0-1.94-1.58-3.52-3.52-3.52h-1.17c-1.95,0-3.52,1.58-3.52,3.52
		C429.1,294.5,430.67,296.08,432.62,296.08z"/>
</g>
<path class="st2" d="M619.75,287.56c-8.62-2.78-14.85,6.43-12.91,14.08c1.02,4.04,4.6,6.66,8.69,6.75c0.74,0.02,1.51-0.11,2.26-0.3
	c1.72-0.31,3.39-0.95,4.82-1.7c3.34-1.76,5.55-5.34,5.25-9.14C627.48,292.54,624.14,288.97,619.75,287.56z"/>
<path class="st2" d="M624.71,393.26c-3.01-1.94-7.4-0.73-10.85-0.86c-2.91-0.11-6.71-0.59-8.18,2.56c-0.3,0.64-0.35,1.52,0.26,2.03
	c2.17,1.78,5.18,2.1,7.91,2.23c3.28,0.15,8.04,0.69,10.85-1.22C626.44,396.82,626.52,394.43,624.71,393.26z"/>
<path class="st2" d="M673.51,379.25c-1.41-14.08-14.18-26.37-28.35-25.24c-0.07,0.01-0.12,0.03-0.18,0.04
	c-0.25-1.35-0.48-2.69-0.69-4.04c0.13-0.11,0.27-0.22,0.4-0.33c1.48-1.25,0.49-3.43-1-4.03c-0.23-1.99-0.4-4.01-0.47-6.05
	c-0.04-1.25-1.02-1.84-1.98-1.81c-1.2-2.14-3.05-3.23-5.23-4.37c-3.04-1.59-5.83-3.72-8.66-5.64c-3.56-2.41-7.15-5.63-11.18-7.43
	c0.1-0.46,0.19-0.92,0.25-1.41c0.34-3.13-6.24-7.23-8.41-8.74c-2.67-1.86-5.28-1.19-7.53,1.22c-4.81,5.13-9.22,10.78-13.46,16.4
	c-2.79,3.7-5.28,7.59-7.74,11.5c-1.07,1.7-3.19,3.94-3.17,6.1c0.01,1.34,0.89,2.08,1.89,2.29c0.54,0.53,1.06,1.08,1.59,1.61
	c-1.38,0.03-2.77,0.13-4.13,0.33c-1.75,0.26-2,2.42-1.07,3.6c-9.64-2.86-22.31,5.46-26.89,13.46c-7.42,12.95-1.83,31.39,12.56,36.41
	c14.28,4.99,28.92,0.16,33.92-14.72c1.37-4.09,1.56-8.25,0.82-12.19c3.56-1.27,7.13-2.53,10.73-3.7c1.24,4.79,1.01,10.3,1.47,15.3
	c0.04,0.42,0.26,0.69,0.53,0.85c0.17,0.34,0.49,0.6,1.01,0.68c2.56,0.36,4.56,0.13,7.15-0.12c0.79-0.08,1.37-0.58,1.41-1.41
	c0.27-5.46-0.17-10.9,0.15-16.36c0.05-0.9,0.19-2.03,0.31-3.23c7.95-3.72,15.77-9.34,22.58-14.81c0.07,0.64,0.12,1.29,0.19,1.94
	c-3.78,1.48-7.26,4.56-9.98,7.16c-5.23,5.01-7.13,11.89-7.42,18.91c-0.62,15.02,11.11,24.38,25.19,24.77
	C663.49,406.61,675.01,394.25,673.51,379.25z M580.5,354.69c1.66,0.18,4.04,0.52,5.63-0.1c0.2-0.08,0.35-0.19,0.51-0.29
	c-1.01,1.56-2.03,3.12-3,4.71c-1.08-0.77-2.2-1.47-3.39-2.08c-1.09-1.19-2.31-2.07-3.59-2.75
	C577.93,354.4,579.21,354.55,580.5,354.69z M589.1,372.49c-3.99,1.26-8.24,2.79-11.74,4.75c1.34-1.97,2.53-4.05,3.76-5.98
	c1.2-1.89,2.42-3.78,3.63-5.69C586.59,367.63,588.06,369.95,589.1,372.49z M590.51,385.11c-1.94,12.58-13.96,17.28-25.26,15.2
	c-13.1-2.41-18.64-15.09-15.59-27.22c1.85-7.36,7.79-12.74,14.66-15.26c2.76-1.01,5.39-1.08,7.99-0.7c0.12,0.1,0.25,0.19,0.42,0.26
	c3.28,1.3,6.25,3.04,8.82,5.12c-4.02,6.72-7.9,13.55-12.04,20.15c-0.46,0.73,0.42,1.47,1.11,1.11c0.29-0.15,0.54-0.33,0.81-0.5
	c0.21,0.21,0.52,0.34,0.82,0.26c6.17-1.58,12.23-3.66,18.28-5.81C590.88,380.06,590.91,382.52,590.51,385.11z M597.41,369.97
	c-1.2,0.38-2.59,0.79-4.09,1.24c-1.42-3.49-3.57-6.69-6.28-9.35c0.95-1.59,1.86-3.21,2.71-4.85c2.87,2.33,6.02,4.3,9.28,6.28
	c2.03,1.23,3.49,2.78,4.56,4.52C601.57,368.58,599.51,369.3,597.41,369.97z M617.34,361.56c-0.18-0.61-0.4-1.19-0.73-1.67
	c-2.2-3.16-5.47-6.04-9.08-8.57c3.22,0.45,6.5,0.64,9.62,0.92c4.8,0.44,9.63,1.01,14.38,0.83
	C626.88,356.15,622.2,359.01,617.34,361.56z M633.03,347.91c-5.06,1.06-10.79,0.26-15.88-0.23c-5.71-0.55-11.69-1.46-17.49-1.18
	c-0.9-0.49-1.78-0.95-2.64-1.39c4.57-5.02,8.87-10.18,13.33-15.31c0.8-0.92,1.58-1.83,2.31-2.76c2.14,2.59,5.32,4.55,7.87,6.43
	c5.19,3.82,10.7,7.68,16.74,10.05c0.83,0.32,1.59,0.31,2.24,0.06c0.03,1.13,0.07,2.27,0.14,3.41
	C637.4,346.98,635.46,347.4,633.03,347.91z M645.71,401.75c-12.78-0.31-18.3-11.23-17.73-22.61c0.3-6.01,2.84-11.34,7.02-15.56
	c1.73-1.75,3.79-2.76,5.89-3.7c0.04,0.32,0.08,0.64,0.12,0.96c0.94,6.7,1.57,14.49,5.32,20.26c0.36,0.55,1.17,0.45,1.37-0.18
	c1.67-5.19,0.38-10.29-0.57-15.54c-0.43-2.37-0.89-4.72-1.35-7.05c11.59,0.19,19.82,8.34,23.97,18.85
	C675.73,392.23,657.97,402.05,645.71,401.75z"/>
<path class="st2" d="M831.1,344.49c-8.98-3.6-17.7-1.27-24.79,4c-2.45-6.93-4.03-14.17-5.3-21.39c-1.26-7.12-6.21-22.5,4.28-22.39
	c5.1,0.05,8.4-4.42,10.73-8.16c1.22-1.96-1.41-3.59-2.99-2.31c-3.89,4-8.87,5.68-14.95,5.03c-1.29-0.34-2.67,0.64-2.64,2.01
	c0.14,8.19,0.75,16.25,1.88,24.22c-13.25,1.86-26,1.15-39.29,1.68c-1.67,0.07-3.41,0.29-5.07,0.74c-2.1-3.31-4.2-6.61-5.67-10.1
	c5.5-1.02,10.29-3.51,14.12-8.02c0.47-0.56,0.41-1.7-0.49-1.84c-4.82-0.74-9.88-0.26-14.72,0.26c-2.66,0.28-5.33,0.47-8.01,0.44
	c-2.07-0.02-3.79-0.97-5.82-1.18c-2.75-0.27-5.15,3.04-4.25,5.57c2.16,6.05,10.12,5.61,15.44,5.25c0.07-0.01,0.15-0.02,0.22-0.02
	c0.77,3.86,3.44,7.7,5.62,11.14c-1.18,0.71-2.24,1.6-3.08,2.77c-2.88,3.99-5.22,8.38-7.51,12.8c-6.52-3.63-13.71-4.95-20.16-1.82
	c-14.19-0.41-26.13,17.6-28.27,30.35c-3.65,21.7,15.39,39.22,35.9,38.95c17.93-0.24,31.63-15.83,33.01-32.79
	c2.61,0.31,5.23,0.61,7.85,0.82c6.36,0.51,8.78-2.67,11.8-8c7.15-12.62,12.66-26.06,19.8-38.7c1.12,5.83,2.53,11.63,4.32,17.39
	c-6.23,5.86-10.78,14-12.37,21.92c-3.85,19.22,13.96,39.18,33.22,39.57c21.48,0.44,35.36-19.2,34.81-39.35
	C858.3,358.23,845.26,346.26,831.1,344.49z M747.54,370.09c0.49,1.37,0.8,2.73,1.01,4.08c-7.61-0.4-15.75-0.86-22.98,0.59
	c3.09-6.24,6.79-12.2,10.48-18.21C741.16,359.37,745.28,363.82,747.54,370.09z M727.99,402.75c-32.29,8.55-37.54-43.15-12.76-49.96
	c0.5,0.23,1.04,0.38,1.67,0.32c5.75-0.59,11.44,0.08,16.41,2.13c-4.03,6.7-9.74,12.66-11.49,20.35c-0.06,0.27-0.02,0.51,0.05,0.74
	c-0.19,0.55-0.09,1.18,0.52,1.45c4.22,1.85,9.53,0.88,13.93,0.55c4.2-0.31,8.36-0.15,12.5,0.21
	C748.34,389.92,739.02,399.83,727.99,402.75z M759.36,374.71c-0.09-1.43-0.25-2.86-0.53-4.28c-1.62-8.18-8.5-17.75-17.04-23.6
	c1.37-2.45,2.7-4.94,3.89-7.49c1.39-2.98,3.46-4.88,5.91-6.1c6.83,13.17,10.91,27.62,17.17,41.07
	C765.8,375.07,762.44,374.93,759.36,374.71z M781.13,358.59c-2.02,3.9-3.95,7.8-6.29,11.52c-0.69,1.1-1.55,1.91-2.48,2.57
	c-5.84-10.74-9.42-22.48-13.59-33.92c-0.86-2.37-2.05-4.63-3.35-6.85c5.61-1.24,12.27-0.27,17.73,0.07
	c7.58,0.48,15.06-0.05,22.53-1.1C790.75,340.08,785.91,349.33,781.13,358.59z M829.33,403.54c-15.37,5.31-29.6-8.1-31-22.56
	c-0.72-7.44,2.52-15.2,7.82-20.96c3.15,7.65,8.17,16.34,15.49,17.28c0.45,0.06,0.89-0.53,0.72-0.94
	c-2.49-6.04-7.87-10.92-11.11-16.75c-0.54-0.96-1.02-1.95-1.51-2.93c2.46-1.95,5.19-3.5,8.07-4.49c0.28,0.08,0.58,0.15,0.9,0.13
	c13.65-0.87,28.63,6.32,30.49,21.05C850.85,386.56,841.48,399.35,829.33,403.54z"/>
</svg>
