<?xml version="1.0" encoding="utf-8"?>
<!-- Generator: Adobe Illustrator 23.0.1, SVG Export Plug-In . SVG Version: 6.00 Build 0)  -->
<svg version="1.1" id="Laag_1" xmlns="http://www.w3.org/2000/svg" xmlns:xlink="http://www.w3.org/1999/xlink" x="0px" y="0px"
	 viewBox="0 0 231.07 241.12" style="enable-background:new 0 0 231.07 241.12;" xml:space="preserve">
<style type="text/css">
	.st0{fill:#3C3C3B;}
</style>
<g>
	<path class="st0" d="M126.36,61.49c-8.62-2.78-14.85,6.43-12.91,14.08c1.02,4.04,4.6,6.66,8.69,6.75c0.74,0.02,1.51-0.11,2.26-0.3
		c1.72-0.31,3.39-0.95,4.82-1.7c3.34-1.76,5.55-5.34,5.25-9.14C134.09,66.47,130.74,62.9,126.36,61.49z"/>
	<path class="st0" d="M131.32,167.2c-3.01-1.94-7.4-0.73-10.85-0.86c-2.91-0.11-6.71-0.59-8.18,2.56c-0.3,0.64-0.35,1.52,0.26,2.03
		c2.17,1.78,5.18,2.1,7.91,2.23c3.28,0.15,8.04,0.69,10.85-1.22C133.05,170.75,133.12,168.36,131.32,167.2z"/>
	<path class="st0" d="M180.11,153.18c-1.41-14.08-14.18-26.37-28.35-25.24c-0.07,0.01-0.12,0.03-0.18,0.04
		c-0.25-1.35-0.48-2.69-0.69-4.04c0.13-0.11,0.27-0.22,0.4-0.33c1.48-1.25,0.49-3.43-1-4.03c-0.23-1.99-0.4-4.01-0.47-6.05
		c-0.04-1.25-1.02-1.84-1.98-1.81c-1.2-2.14-3.05-3.23-5.23-4.37c-3.04-1.59-5.83-3.72-8.66-5.64c-3.56-2.41-7.15-5.63-11.18-7.43
		c0.1-0.46,0.19-0.92,0.25-1.41c0.34-3.13-6.24-7.23-8.41-8.74c-2.67-1.86-5.28-1.19-7.53,1.22c-4.81,5.13-9.22,10.78-13.46,16.4
		c-2.79,3.7-5.28,7.59-7.74,11.5c-1.07,1.7-3.19,3.94-3.17,6.1c0.01,1.34,0.89,2.08,1.89,2.29c0.54,0.53,1.06,1.08,1.59,1.61
		c-1.38,0.03-2.77,0.13-4.13,0.33c-1.75,0.26-2,2.42-1.07,3.6c-9.64-2.86-22.31,5.46-26.89,13.46
		c-7.42,12.95-1.83,31.39,12.56,36.41c14.28,4.99,28.92,0.16,33.92-14.72c1.37-4.09,1.56-8.25,0.82-12.19
		c3.56-1.27,7.13-2.53,10.73-3.7c1.24,4.79,1.01,10.3,1.47,15.3c0.04,0.42,0.26,0.69,0.53,0.85c0.17,0.34,0.49,0.6,1.01,0.68
		c2.56,0.36,4.56,0.13,7.15-0.12c0.79-0.08,1.37-0.58,1.41-1.41c0.27-5.46-0.17-10.9,0.15-16.36c0.05-0.9,0.19-2.03,0.31-3.23
		c7.95-3.72,15.77-9.34,22.58-14.81c0.07,0.65,0.12,1.29,0.19,1.94c-3.78,1.48-7.26,4.56-9.98,7.16
		c-5.23,5.01-7.13,11.89-7.42,18.91c-0.62,15.02,11.11,24.38,25.19,24.77C170.1,180.55,181.61,168.18,180.11,153.18z M87.1,128.62
		c1.66,0.18,4.04,0.52,5.63-0.1c0.2-0.08,0.35-0.19,0.51-0.29c-1.01,1.56-2.03,3.12-3,4.71c-1.08-0.77-2.2-1.47-3.39-2.08
		c-1.09-1.19-2.31-2.07-3.59-2.75C84.54,128.34,85.82,128.48,87.1,128.62z M95.7,146.42c-3.99,1.26-8.24,2.79-11.74,4.75
		c1.34-1.97,2.53-4.05,3.76-5.98c1.2-1.89,2.42-3.78,3.63-5.69C93.19,141.56,94.66,143.89,95.7,146.42z M97.11,159.05
		c-1.94,12.58-13.96,17.28-25.26,15.2c-13.1-2.41-18.64-15.09-15.59-27.22c1.85-7.36,7.79-12.74,14.66-15.26
		c2.76-1.01,5.39-1.08,7.99-0.7c0.12,0.1,0.25,0.19,0.42,0.26c3.28,1.3,6.25,3.04,8.82,5.12c-4.02,6.72-7.9,13.55-12.04,20.15
		c-0.46,0.73,0.42,1.47,1.11,1.11c0.29-0.15,0.54-0.33,0.81-0.5c0.21,0.21,0.51,0.34,0.82,0.26c6.17-1.58,12.23-3.66,18.28-5.81
		C97.48,153.99,97.51,156.45,97.11,159.05z M104.01,143.9c-1.2,0.38-2.59,0.79-4.09,1.24c-1.42-3.49-3.57-6.69-6.28-9.35
		c0.95-1.59,1.86-3.21,2.71-4.85c2.87,2.33,6.02,4.3,9.28,6.28c2.03,1.23,3.49,2.78,4.56,4.53
		C108.17,142.51,106.12,143.23,104.01,143.9z M123.94,135.5c-0.18-0.61-0.4-1.19-0.73-1.67c-2.2-3.16-5.47-6.04-9.08-8.57
		c3.22,0.45,6.5,0.64,9.62,0.92c4.8,0.44,9.63,1.01,14.38,0.83C133.49,130.08,128.8,132.94,123.94,135.5z M139.63,121.85
		c-5.06,1.06-10.79,0.26-15.88-0.23c-5.71-0.55-11.69-1.46-17.49-1.18c-0.9-0.49-1.78-0.95-2.64-1.39
		c4.57-5.02,8.87-10.18,13.33-15.31c0.8-0.92,1.58-1.83,2.31-2.76c2.14,2.59,5.31,4.55,7.87,6.43c5.19,3.82,10.7,7.68,16.74,10.05
		c0.83,0.32,1.59,0.31,2.24,0.06c0.03,1.13,0.07,2.27,0.14,3.41C144,120.91,142.06,121.34,139.63,121.85z M152.32,175.68
		c-12.78-0.31-18.3-11.23-17.73-22.61c0.3-6.01,2.84-11.34,7.02-15.56c1.73-1.75,3.79-2.76,5.89-3.7c0.04,0.32,0.08,0.64,0.12,0.96
		c0.94,6.7,1.57,14.49,5.32,20.26c0.36,0.55,1.17,0.45,1.37-0.18c1.67-5.19,0.38-10.29-0.57-15.54c-0.43-2.37-0.89-4.72-1.35-7.05
		c11.59,0.19,19.82,8.34,23.97,18.85C182.33,166.17,164.57,175.98,152.32,175.68z"/>
</g>
<path class="st0" d="M831.1,344.49c-8.98-3.6-17.7-1.27-24.79,4c-2.45-6.93-4.03-14.17-5.3-21.39c-1.26-7.12-6.21-22.5,4.28-22.39
	c5.1,0.05,8.4-4.42,10.73-8.16c1.22-1.96-1.41-3.59-2.99-2.31c-3.89,4-8.87,5.68-14.95,5.03c-1.29-0.34-2.67,0.64-2.64,2.01
	c0.14,8.19,0.75,16.25,1.88,24.22c-13.25,1.86-26,1.15-39.29,1.68c-1.67,0.07-3.41,0.29-5.07,0.74c-2.1-3.31-4.2-6.61-5.67-10.1
	c5.5-1.02,10.29-3.51,14.12-8.02c0.47-0.56,0.41-1.7-0.49-1.84c-4.82-0.74-9.88-0.26-14.72,0.26c-2.66,0.28-5.33,0.47-8.01,0.44
	c-2.07-0.02-3.79-0.97-5.82-1.18c-2.75-0.27-5.15,3.04-4.25,5.57c2.16,6.05,10.12,5.61,15.44,5.25c0.07-0.01,0.15-0.02,0.22-0.02
	c0.77,3.86,3.44,7.7,5.62,11.14c-1.18,0.71-2.24,1.6-3.08,2.77c-2.88,3.99-5.22,8.38-7.51,12.8c-6.52-3.63-13.71-4.95-20.16-1.82
	c-14.19-0.41-26.13,17.6-28.27,30.35c-3.65,21.7,15.39,39.22,35.9,38.95c17.93-0.24,31.63-15.83,33.01-32.79
	c2.61,0.31,5.23,0.61,7.85,0.82c6.36,0.51,8.78-2.67,11.8-8c7.15-12.62,12.66-26.06,19.8-38.7c1.12,5.83,2.53,11.63,4.32,17.39
	c-6.23,5.86-10.78,14-12.37,21.92c-3.85,19.22,13.96,39.18,33.22,39.57c21.48,0.44,35.36-19.2,34.81-39.35
	C858.3,358.23,845.26,346.26,831.1,344.49z M747.54,370.09c0.49,1.37,0.8,2.73,1.01,4.08c-7.61-0.4-15.75-0.86-22.98,0.59
	c3.09-6.24,6.79-12.2,10.48-18.21C741.16,359.37,745.28,363.82,747.54,370.09z M727.99,402.75c-32.29,8.55-37.54-43.15-12.76-49.96
	c0.5,0.23,1.04,0.38,1.67,0.32c5.75-0.59,11.44,0.08,16.41,2.13c-4.03,6.7-9.74,12.66-11.49,20.35c-0.06,0.27-0.02,0.51,0.05,0.74
	c-0.19,0.55-0.09,1.18,0.52,1.45c4.22,1.85,9.53,0.88,13.93,0.55c4.2-0.31,8.36-0.15,12.5,0.21
	C748.34,389.92,739.02,399.83,727.99,402.75z M759.36,374.71c-0.09-1.43-0.25-2.86-0.53-4.28c-1.62-8.18-8.5-17.75-17.04-23.6
	c1.37-2.45,2.7-4.94,3.89-7.49c1.39-2.98,3.46-4.88,5.91-6.1c6.83,13.17,10.91,27.62,17.17,41.07
	C765.8,375.07,762.44,374.93,759.36,374.71z M781.13,358.59c-2.02,3.9-3.95,7.8-6.29,11.52c-0.69,1.1-1.55,1.91-2.48,2.57
	c-5.84-10.74-9.42-22.48-13.59-33.92c-0.86-2.37-2.05-4.63-3.35-6.85c5.61-1.24,12.27-0.27,17.73,0.07
	c7.58,0.48,15.06-0.05,22.53-1.1C790.75,340.08,785.91,349.33,781.13,358.59z M829.33,403.54c-15.37,5.31-29.6-8.1-31-22.56
	c-0.72-7.44,2.52-15.2,7.82-20.96c3.15,7.65,8.17,16.34,15.49,17.28c0.45,0.06,0.89-0.53,0.72-0.94
	c-2.49-6.04-7.87-10.92-11.11-16.75c-0.54-0.96-1.02-1.95-1.51-2.93c2.46-1.95,5.19-3.5,8.07-4.49c0.28,0.08,0.58,0.15,0.9,0.13
	c13.65-0.87,28.63,6.32,30.49,21.05C850.85,386.56,841.48,399.35,829.33,403.54z"/>
</svg>
