<?xml version="1.0" encoding="utf-8"?>
<!-- Generator: Adobe Illustrator 23.0.1, SVG Export Plug-In . SVG Version: 6.00 Build 0)  -->
<svg version="1.1" id="Laag_1" xmlns="http://www.w3.org/2000/svg" xmlns:xlink="http://www.w3.org/1999/xlink" x="0px" y="0px"
	 viewBox="0 0 231.07 241.12" style="enable-background:new 0 0 231.07 241.12;" xml:space="preserve">
<style type="text/css">
	.st0{fill:#3C3C3B;}
</style>
<path class="st0" d="M172.31,111.81c-8.98-3.6-17.7-1.27-24.79,4c-2.45-6.93-4.03-14.17-5.3-21.39c-1.26-7.12-6.21-22.5,4.28-22.39
	c5.1,0.05,8.4-4.42,10.73-8.16c1.22-1.96-1.41-3.59-2.99-2.31c-3.89,4-8.87,5.68-14.95,5.03c-1.29-0.34-2.67,0.64-2.64,2.01
	c0.14,8.19,0.75,16.25,1.88,24.22c-13.25,1.86-26,1.15-39.29,1.68c-1.67,0.07-3.41,0.29-5.07,0.74c-2.1-3.31-4.2-6.61-5.67-10.1
	c5.5-1.02,10.29-3.51,14.12-8.02c0.47-0.56,0.41-1.7-0.49-1.84c-4.82-0.74-9.88-0.26-14.72,0.26c-2.66,0.28-5.33,0.47-8.01,0.44
	c-2.07-0.02-3.79-0.97-5.82-1.18c-2.75-0.27-5.15,3.04-4.25,5.57c2.16,6.05,10.12,5.61,15.44,5.25c0.07-0.01,0.15-0.02,0.22-0.02
	c0.77,3.86,3.44,7.7,5.62,11.14c-1.18,0.71-2.24,1.6-3.08,2.77c-2.88,3.99-5.22,8.38-7.51,12.8c-6.52-3.63-13.71-4.95-20.16-1.82
	c-14.19-0.41-26.13,17.6-28.27,30.35c-3.65,21.7,15.39,39.22,35.9,38.95c17.93-0.24,31.63-15.83,33.01-32.79
	c2.61,0.31,5.23,0.61,7.85,0.82c6.36,0.51,8.78-2.67,11.8-8c7.15-12.62,12.66-26.06,19.8-38.7c1.12,5.83,2.53,11.63,4.32,17.39
	c-6.23,5.86-10.78,14-12.37,21.92c-3.85,19.22,13.96,39.18,33.22,39.57c21.48,0.44,35.36-19.2,34.81-39.35
	C199.51,125.55,186.46,113.57,172.31,111.81z M88.74,137.41c0.49,1.37,0.8,2.73,1.01,4.08c-7.61-0.4-15.75-0.86-22.98,0.59
	c3.09-6.24,6.79-12.2,10.48-18.21C82.36,126.69,86.49,131.14,88.74,137.41z M69.19,170.06c-32.29,8.55-37.54-43.15-12.76-49.96
	c0.5,0.23,1.04,0.38,1.67,0.32c5.75-0.59,11.44,0.08,16.41,2.13c-4.03,6.7-9.74,12.66-11.49,20.35c-0.06,0.27-0.02,0.51,0.05,0.74
	c-0.19,0.55-0.09,1.18,0.52,1.45c4.22,1.85,9.53,0.88,13.93,0.55c4.2-0.31,8.36-0.15,12.5,0.21
	C89.54,157.23,80.22,167.14,69.19,170.06z M100.57,142.03c-0.09-1.43-0.25-2.86-0.53-4.28c-1.62-8.18-8.5-17.75-17.04-23.6
	c1.37-2.45,2.7-4.94,3.89-7.49c1.39-2.98,3.46-4.88,5.91-6.1c6.83,13.17,10.91,27.62,17.17,41.07
	C107,142.39,103.64,142.25,100.57,142.03z M122.33,125.9c-2.02,3.9-3.95,7.8-6.29,11.52c-0.69,1.1-1.55,1.91-2.48,2.57
	c-5.84-10.74-9.42-22.48-13.59-33.92c-0.86-2.37-2.05-4.63-3.35-6.85c5.61-1.24,12.27-0.27,17.73,0.07
	c7.58,0.48,15.06-0.05,22.53-1.1C131.95,107.4,127.12,116.64,122.33,125.9z M170.54,170.86c-15.37,5.31-29.6-8.1-31-22.56
	c-0.72-7.44,2.52-15.2,7.82-20.96c3.15,7.65,8.17,16.34,15.49,17.28c0.45,0.06,0.89-0.53,0.72-0.94
	c-2.49-6.04-7.87-10.92-11.11-16.75c-0.54-0.96-1.02-1.95-1.51-2.93c2.46-1.95,5.19-3.5,8.07-4.49c0.28,0.08,0.58,0.15,0.9,0.13
	c13.65-0.87,28.63,6.32,30.49,21.05C192.05,153.88,182.68,166.67,170.54,170.86z"/>
</svg>
