<?xml version="1.0" encoding="utf-8"?>
<!-- Generator: Adobe Illustrator 23.0.0, SVG Export Plug-In . SVG Version: 6.00 Build 0)  -->
<svg version="1.1" id="Layer_1" xmlns="http://www.w3.org/2000/svg" xmlns:xlink="http://www.w3.org/1999/xlink" x="0px" y="0px"
	 viewBox="0 0 492.6 99.1" style="enable-background:new 0 0 492.6 99.1;" xml:space="preserve">
<style type="text/css">
	.st0{fill:#1B75BC;}
	.st1{fill:#333333;}
	.st2{fill:#FFFFFF;}
</style>
<title>Asset 1</title>
<g>
	<g id="Layer_1-2">
		<path class="st0" d="M470,0c-0.4,0-0.8,0-1.2,0c-15.6,0.8-25.5,17.2-19.7,31.7l19.1,47.4c0.3,0.7,1,1.2,1.7,1.2l0,0
			c0.8,0,1.4-0.5,1.7-1.2l19.2-47.4c5.9-14.5-4-30.9-19.6-31.7C470.8,0,470.4,0,470,0z"/>
		<path class="st0" d="M36,64.9c0,5-1.8,8.9-5.4,11.8S22,81,15.6,81C9.3,81,4.1,80,0,78v-8.7c2.6,1.2,5.4,2.2,8.2,2.8
			c2.6,0.6,5.3,1,8.1,1c3.6,0,6.3-0.7,8.1-2.1c1.7-1.3,2.7-3.4,2.6-5.6c0-2-0.8-4-2.4-5.3c-1.6-1.4-4.9-3.1-9.8-5.1
			c-5.1-2.1-8.7-4.5-10.9-7.1c-2.1-2.7-3.2-6.1-3.2-9.6c-0.2-4.3,1.7-8.4,5-11.1c3.3-2.7,7.8-4,13.4-4c5.5,0,11,1.2,16.1,3.5
			l-2.9,7.5c-4.2-1.9-8.8-3-13.4-3.2c-3,0-5.2,0.6-6.8,1.9c-1.5,1.3-2.4,3.2-2.3,5.1c0,1.3,0.3,2.6,0.9,3.8c0.8,1.2,1.8,2.2,3,2.9
			c2.4,1.4,5,2.6,7.6,3.7c3.2,1.2,6.3,2.8,9.1,4.8c1.8,1.3,3.2,3,4.2,5C35.6,60.3,36.1,62.6,36,64.9z"/>
		<path class="st0" d="M57.8,73.7c2.2,0,4.5-0.3,6.6-1v6.8c-1.2,0.5-2.5,0.9-3.9,1.1C59,80.9,57.3,81,55.7,81
			c-8.6,0-12.8-4.5-12.8-13.6V44.5H37v-4l6.2-3.3l3.1-9h5.6v9.5H64v6.8H51.9v22.8c-0.1,1.8,0.4,3.5,1.6,4.8
			C54.7,73.2,56.3,73.7,57.8,73.7z"/>
		<path class="st0" d="M99,80.2l-1.3-5.6h-0.5c-1.3,2-3.2,3.6-5.4,4.7C89.4,80.4,86.7,81,84,81c-5.2,0-9-1.3-11.5-3.8
			c-2.5-2.6-3.8-6.5-3.8-11.7V37.6h9.1v26.2c0,3.3,0.7,5.7,2,7.3s3.4,2.4,6.3,2.4c3.8,0,6.6-1.1,8.4-3.4C96.2,68,97,64.2,97,58.8
			V37.6h9.1v42.6H99z"/>
		<path class="st0" d="M129.4,81c-5.3,0-9.5-1.9-12.4-5.8c-3-3.8-4.4-9.3-4.5-16.2c0-7,1.5-12.4,4.5-16.3s7.2-5.8,12.5-5.8
			c5.6,0,9.8,2.1,12.8,6.2h0.5c-0.4-2.4-0.6-4.8-0.6-7.2V20.3h9.1v59.9h-7.1l-1.6-5.6h-0.4C139.3,78.9,135,81,129.4,81z M131.8,73.7
			c3.7,0,6.4-1.1,8.1-3.1s2.6-5.5,2.6-10.2v-1.3c0-5.3-0.9-9.1-2.6-11.4c-1.7-2.3-4.5-3.4-8.2-3.4c-3-0.1-5.8,1.4-7.3,3.9
			c-1.7,2.6-2.6,6.2-2.6,11c0,4.8,0.8,8.4,2.5,10.8C126,72.4,128.9,73.8,131.8,73.7L131.8,73.7z"/>
		<path class="st0" d="M178.8,81c-6.6,0-11.8-1.9-15.5-5.8s-5.6-9.2-5.6-16c0-6.9,1.7-12.4,5.2-16.4c3.5-4,8.2-6,14.3-6
			c5.6,0,10,1.7,13.3,5.1c3.3,3.4,4.9,8.1,4.9,14.1v5H167c0.1,4.1,1.2,7.3,3.4,9.5c2.1,2.2,5.1,3.3,8.9,3.3c2.4,0,4.7-0.2,7-0.7
			c2.4-0.5,4.8-1.3,7-2.4v7.3c-2.1,1-4.4,1.8-6.7,2.2C184,80.8,181.4,81,178.8,81z M177.2,43.8c-2.6-0.1-5.1,0.9-6.9,2.7
			c-1.7,1.8-2.8,4.5-3.1,8h19.3c-0.1-3.5-0.9-6.2-2.5-8C182.2,44.6,179.7,43.6,177.2,43.8L177.2,43.8z"/>
		<path class="st0" d="M239.1,80.2H230V54c0-3.3-0.7-5.7-2-7.3c-1.3-1.6-3.4-2.4-6.3-2.4c-3.8,0-6.6,1.1-8.4,3.4
			c-1.8,2.3-2.6,6.1-2.6,11.4v21.2h-9V37.6h7.1l1.2,5.6h0.5c1.3-2.1,3.2-3.7,5.5-4.7c2.5-1.1,5.1-1.7,7.9-1.7
			c10.2,0,15.3,5.2,15.3,15.6L239.1,80.2z"/>
		<path class="st0" d="M263.6,73.7c2.2,0,4.5-0.3,6.6-1v6.8c-1.2,0.5-2.5,0.9-3.9,1.1c-1.6,0.3-3.3,0.5-4.9,0.4
			c-8.6,0-12.8-4.5-12.9-13.5v-23h-5.8v-4l6.2-3.3l3.1-9h5.6v9.5h12.1v6.8h-12.1v22.8c-0.1,1.8,0.4,3.5,1.6,4.8
			C260.5,73.2,262,73.7,263.6,73.7z"/>
		<path class="st1" d="M301,80.2l-21-51.9h-0.3c0.2,3.2,0.3,6.4,0.3,9.7v42.2h-3.8V24h6.1l19.9,49.5h0.2l20-49.5h5.9v56.2h-4V37.6
			c0-3,0.2-6,0.5-9.2h-0.3l-21,51.9H301z"/>
		<path class="st1" d="M364.7,80.2l-1-6.6h-0.3c-1.7,2.3-3.9,4.3-6.4,5.7c-2.5,1.2-5.2,1.8-7.9,1.7c-4.1,0-7.3-1.1-9.6-3.2
			s-3.4-5-3.4-8.7c-0.1-3.9,1.8-7.5,5.1-9.5c3.4-2.3,8.3-3.5,14.8-3.6l8-0.2V53c0-4-0.8-7-2.4-9c-1.6-2-4.2-3-7.8-3
			c-4.2,0.1-8.3,1.2-12,3.2l-1.4-3.3c4.2-2.1,8.9-3.2,13.6-3.2c4.6,0,8,1.2,10.3,3.6c2.3,2.4,3.4,6.1,3.4,11.2v27.8H364.7z
			 M349.3,77.5c4.5,0,8-1.3,10.6-3.8c2.6-2.5,3.9-6.1,3.9-10.7v-4.1l-7.3,0.3c-5.9,0.3-10.1,1.2-12.6,2.8c-2.5,1.5-3.9,4.3-3.8,7.3
			c-0.1,2.3,0.7,4.5,2.4,6.1C344.4,76.9,346.9,77.6,349.3,77.5z"/>
		<path class="st1" d="M395,81c-6.4,0-11.1-2.4-14.1-7.2h-0.3l0.1,3.2c0.1,1.9,0.1,4,0.1,6.2v15.9h-3.8V38.4h3.2l0.7,6h0.2
			c2.9-4.5,7.5-6.8,13.8-6.8c5.6,0,9.9,1.9,12.9,5.6c3,3.7,4.4,9.1,4.5,16.2c0,6.9-1.6,12.2-4.7,16C404.6,79.1,400.4,81,395,81z
			 M394.9,77.6c3.9,0.2,7.6-1.6,10-4.8c2.3-3.2,3.5-7.6,3.5-13.3c0-12.3-4.4-18.5-13.3-18.5c-4.9,0-8.4,1.3-10.7,4s-3.4,7-3.4,13.1
			v1.2c0,6.5,1.1,11.2,3.3,14C386.4,76.1,390,77.5,394.9,77.6L394.9,77.6z"/>
		<path class="st1" d="M446,69.3c0.2,3.4-1.5,6.7-4.3,8.6c-2.9,2-6.9,3-12.1,3c-5.6,0-10-0.9-13.3-2.6v-4.1
			c4.1,2.1,8.7,3.2,13.3,3.2c4.1,0,7.3-0.7,9.4-2.1c2-1.1,3.2-3.2,3.2-5.5c0-2.1-0.9-4-2.6-5.3c-1.7-1.4-4.5-2.9-8.4-4.2
			c-3.1-1-6-2.3-8.8-3.9c-1.5-0.9-2.8-2.2-3.8-3.7c-0.9-1.5-1.3-3.2-1.3-5c-0.1-3,1.5-5.8,4-7.4c2.6-1.8,6.3-2.7,11-2.7
			c4.4,0,8.8,0.8,12.8,2.5l-1.4,3.5c-3.6-1.6-7.5-2.5-11.5-2.6c-2.8-0.1-5.6,0.4-8.1,1.7c-1.8,0.8-3,2.7-3,4.7
			c-0.1,2,0.8,3.9,2.3,5.2c1.5,1.3,4.6,2.8,9.1,4.4c2.9,0.9,5.6,2.2,8.2,3.7c1.5,0.9,2.9,2.2,3.9,3.7
			C445.6,65.9,446.1,67.6,446,69.3z"/>
	</g>
</g>
<g>
	<path class="st0" d="M776.7,81c-0.4,0-0.8,0-1.2,0c-15.6,0.8-25.5,17.2-19.7,31.7l19.1,47.4c0.3,0.7,1,1.2,1.7,1.2l0,0
		c0.8,0,1.4-0.5,1.7-1.2l19.2-47.4c5.9-14.5-4-30.9-19.7-31.7C777.5,81,777.1,81,776.7,81z"/>
	<g>
		<path class="st2" d="M782.7,98.2c0,0.6,0,1.1,0,1.7c-2,0-3.6-0.8-4.9-2.3c-0.7,0.7-1.4,1.3-2.1,2c0.5,0.5,0.9,0.9,1.3,1.3
			c0.5,0.4,0.6,0.8,0.6,1.4c0,1.4,0,2.8,0,4.2c0,0.1,0,0.2,0,0.3c-0.6,0-1.1,0-1.7,0c0-0.1,0-0.2,0-0.2c0-1.3,0-2.6,0-3.8
			c0-0.1,0-0.2-0.1-0.3c-0.8-0.7-1.6-1.4-2.4-2.1c-0.9-0.8-0.9-1.9-0.1-2.7c0.8-0.8,1.5-1.5,2.3-2.3c0.6-0.6,1.6-0.6,2.2,0
			c0.6,0.6,1.2,1.2,1.8,1.8c0.8,0.7,1.7,1.1,2.7,1.1C782.5,98.2,782.6,98.2,782.7,98.2z"/>
		<path class="st2" d="M782.7,109.4c-2.4,0-4.3-1.9-4.3-4.3c0-2.4,1.9-4.3,4.3-4.3c2.4,0,4.3,1.9,4.3,4.3
			C787,107.5,785.1,109.4,782.7,109.4z M782.7,102.1c-1.7,0-3,1.3-3,3c0,1.7,1.3,3,3,3c1.7,0,3-1.4,3-3
			C785.7,103.4,784.4,102.1,782.7,102.1z"/>
		<path class="st2" d="M770.8,109.4c-2.4,0-4.3-1.9-4.3-4.3c0-2.4,1.9-4.3,4.3-4.3c2.3,0,4.3,2,4.3,4.3
			C775,107.5,773.1,109.4,770.8,109.4z M770.8,102.1c-1.7,0-3,1.3-3,3c0,1.7,1.3,3,3,3c1.7,0,3-1.3,3-3
			C773.8,103.4,772.4,102.1,770.8,102.1z"/>
		<path class="st2" d="M781.4,93.5c0,1-0.8,1.7-1.7,1.7c-0.9,0-1.7-0.8-1.7-1.7c0-0.9,0.8-1.7,1.7-1.7
			C780.7,91.9,781.4,92.6,781.4,93.5z"/>
	</g>
</g>
</svg>
