<svg id="Laag_1" data-name="Laag 1" xmlns="http://www.w3.org/2000/svg" viewBox="0 0 82 82"><defs><style>.cls-1{fill:#1b75bc;}.cls-2{fill:#fff;}</style></defs><title>PinVelo</title><g id="Layer_2" data-name="Layer 2"><g id="Layer_1-2" data-name="Layer 1-2"><path class="cls-1" d="M41,.89H39.76c-15.6.8-25.51,17.17-19.66,31.66L39.22,80a1.85,1.85,0,0,0,1.72,1.16h0A1.87,1.87,0,0,0,42.66,80L61.88,32.59c5.88-14.49-4-30.91-19.65-31.7Z"/></g></g><path class="cls-2" d="M46.05,38.91l-.12,0c-2.56-.8-5.25-1.8-7.84-2.76s-5.27-2-7.81-2.75a5.93,5.93,0,0,1-2.51-1.27c-1.63-1.65-.9-4.35-.21-6.23l6-16.52a4.17,4.17,0,0,1,1.08-1.84c1.09-.94,2.65-.62,4-.19l12.51,3.92a13.9,13.9,0,0,1,1.94.81,15.85,15.85,0,0,0,1.78.76.35.35,0,0,1,.22.19.39.39,0,0,1,0,.3c-2.82,8.44-5.78,17-8.79,25.34A.38.38,0,0,1,46.05,38.91ZM36.5,7.68a2,2,0,0,0-1.32.43,3.63,3.63,0,0,0-.86,1.52l-6,16.52c-.61,1.68-1.28,4.08,0,5.42a5.3,5.3,0,0,0,2.19,1.08c2.57.8,5.25,1.79,7.85,2.76s5,1.86,7.45,2.63c2.92-8.14,5.79-16.42,8.53-24.62-.52-.19-1-.43-1.5-.66A13.6,13.6,0,0,0,51,12L38.49,8.07A6.88,6.88,0,0,0,36.5,7.68Z"/><path class="cls-2" d="M48.12,32.83a.27.27,0,0,1-.13,0L32.81,27.45a6.69,6.69,0,0,0-3.38-.57,2.46,2.46,0,0,0-1.53,1A1.48,1.48,0,0,0,27.64,29a.38.38,0,0,1-.3.46.39.39,0,0,1-.46-.3,2.22,2.22,0,0,1,.37-1.71,3.3,3.3,0,0,1,2-1.33,7.43,7.43,0,0,1,3.79.6l15.17,5.36a.39.39,0,0,1,.24.5A.38.38,0,0,1,48.12,32.83Z"/><path class="cls-2" d="M31.55,25.59h0a.39.39,0,0,1-.34-.43A42.89,42.89,0,0,1,36.08,9.68a.4.4,0,0,1,.53-.16.38.38,0,0,1,.15.53,42.25,42.25,0,0,0-4.82,15.2A.38.38,0,0,1,31.55,25.59Z"/><polygon class="cls-2" points="30.55 29.91 28.75 35.75 31.6 33.91 32.06 36.46 33.78 30.77 30.55 29.91"/><path class="cls-2" d="M47.09,35.62l-.15,0a112.47,112.47,0,0,0-17.28-5.53.39.39,0,0,1,.18-.76,113.29,113.29,0,0,1,17.4,5.57.4.4,0,0,1,.21.51A.39.39,0,0,1,47.09,35.62Z"/></svg>