<?xml version="1.0" encoding="utf-8"?>
<!-- Generator: Adobe Illustrator 23.0.1, SVG Export Plug-In . SVG Version: 6.00 Build 0)  -->
<svg version="1.1" id="Laag_1" xmlns="http://www.w3.org/2000/svg" xmlns:xlink="http://www.w3.org/1999/xlink" x="0px" y="0px"
	 viewBox="0 0 82 82" style="enable-background:new 0 0 82 82;" xml:space="preserve">
<style type="text/css">
	.st0{fill:#1B75BC;}
	.st1{fill:#FFD500;}
	.st2{fill:#FFFFFF;}
	.st3{fill:#FFFFFF;stroke:#FFFFFF;stroke-width:0.5;stroke-miterlimit:10;}
</style>
<g id="Layer_2_1_">
	<g id="Layer_1-2_1_">
		<path class="st0" d="M41,0.9h-1.2C24.2,1.7,14.3,18.1,20.1,32.5l19.1,47.4c0.3,0.7,1,1.2,1.7,1.2l0,0c0.8,0,1.4-0.5,1.7-1.2
			l19.2-47.4c5.9-14.5-4-30.9-19.6-31.7H41z"/>
	</g>
</g>
<g>
	<path class="st3" d="M44.7,35.5c-2.5,0-5.1,0.2-7.6-0.1c-0.5-0.1-0.5,0.7,0,0.8c2.5,0.3,5.1,0.1,7.6,0.1
		C45.2,36.3,45.2,35.5,44.7,35.5z"/>
	<path class="st3" d="M46.5,24.3c1.8-4.4,2.9-9.2,1.6-14c0-0.1-0.1-0.2-0.2-0.2c0,0-0.1,0-0.2,0c-0.1,0-0.1,0-0.2,0
		c0-1.5-1-2.8-2.6-2.4c-0.5-2.2-3.9-2.5-4.7-0.5c-1.2-0.9-3.4-0.6-4,0.9c-1.2-0.2-2.1,0.8-1.8,1.9c0,0-0.1,0-0.1,0
		c-0.1,0-0.1,0-0.2,0c-0.1,0-0.2,0.1-0.2,0.2c-1.3,4.7-0.2,9.5,1.6,14c1,2.6,1.2,4.6,0.6,7.4c-0.4,1.8-1,3.5-0.8,5.3
		c0,0.2,0.1,0.3,0.3,0.4c1.8,0.6,3.8,0.3,5.7,0.3c1.7,0,3.5,0.2,5.2-0.3c0.2-0.1,0.3-0.2,0.3-0.4c0.2-1.8-0.4-3.4-0.8-5.1
		C45.3,29.1,45.4,27,46.5,24.3z M34.6,10.9c4.3-0.1,8.6-0.2,12.8,0c0.3,1.3,0.5,2.7,0.5,4.1c-4.6-0.1-9.2,0.4-13.8,0.1
		C34.1,13.6,34.3,12.2,34.6,10.9z M36.3,9c0.2,0.1,0.5,0,0.6-0.2c0.6-1.4,1.6-1.6,3.2-0.6c0.2,0.3,0.6,0.3,0.7-0.1
		c0.3-1.8,3.4-2.3,3.5,0.1c0,0.2,0.2,0.5,0.5,0.4c1.4-0.3,1.8,0.4,2,1.5c-3.8-0.1-7.6,0-11.4,0C35,9.1,35.6,8.7,36.3,9z M45,37
		c-1.2,0.1-2.5,0.1-3.7,0.1c-1.3,0-2.7,0.1-4,0C36,36.9,36,36.8,36,35.7c0.1-0.8,0.2-1.5,0.4-2.2c0.5-1.9,1.1-3.9,0.9-5.9
		c-0.3-2.6-1.9-5-2.5-7.6c-0.3-1.4-0.6-2.8-0.6-4.3c4.6,0.4,9.1-0.2,13.7-0.1c-0.1,1.5-0.3,2.9-0.6,4.3c-0.6,2.6-2.3,4.9-2.5,7.6
		c-0.2,2,0.4,4,0.9,5.9c0.2,0.7,0.3,1.5,0.4,2.2C46,36.7,46.1,36.9,45,37z"/>
	<path class="st3" d="M44.8,23.4c0.1-0.4,0.4-0.7,0.6-1c0.2-0.3,0.3-0.7,0.4-1c0.3-0.8,0.4-1.7,0.6-2.5c0.1-0.5-0.7-0.7-0.7-0.2
		c-0.1,0.9-0.3,1.7-0.6,2.5c-0.1,0.4-0.3,0.8-0.5,1.2c-0.2,0.3-0.4,0.5-0.5,0.8C43.9,23.7,44.7,23.9,44.8,23.4z"/>
	<path class="st3" d="M46.1,17.5c0.5,0,0.5-0.8,0-0.8C45.6,16.7,45.6,17.5,46.1,17.5z"/>
</g>
</svg>
