<svg id="Laag_1" data-name="Laag 1" xmlns="http://www.w3.org/2000/svg" viewBox="0 0 82 82"><defs><style>.cls-1{fill:#1b75bc;}.cls-2{fill:#fff;}</style></defs><title>PinVelo</title><g id="Layer_2" data-name="Layer 2"><g id="Layer_1-2" data-name="Layer 1-2"><path class="cls-1" d="M41,.89H39.76c-15.6.8-25.51,17.17-19.66,31.66L39.22,80a1.85,1.85,0,0,0,1.72,1.16h0A1.87,1.87,0,0,0,42.66,80L61.88,32.59c5.88-14.49-4-30.91-19.65-31.7Z"/></g></g><path class="cls-2" d="M44.68,35.49a59.88,59.88,0,0,1-7.58-.07c-.49-.06-.49.7,0,.76a58.09,58.09,0,0,0,7.58.07A.38.38,0,0,0,44.68,35.49Z"/><path class="cls-2" d="M46.5,24.34c1.77-4.42,2.88-9.24,1.57-14a.33.33,0,0,0-.2-.24.29.29,0,0,0-.16,0h-.22c0-1.52-1-2.8-2.55-2.41a2.57,2.57,0,0,0-4.75-.46c-1.22-.93-3.43-.58-4,.93a1.53,1.53,0,0,0-1.77,1.94h-.15a.33.33,0,0,0-.17,0,.38.38,0,0,0-.2.24c-1.3,4.72-.19,9.54,1.58,14a11.32,11.32,0,0,1,.61,7.42c-.4,1.77-1,3.46-.82,5.32a.38.38,0,0,0,.28.37c1.76.58,3.83.31,5.67.33a18.43,18.43,0,0,0,5.19-.33.4.4,0,0,0,.28-.37,15.55,15.55,0,0,0-.77-5.1A11.47,11.47,0,0,1,46.5,24.34ZM34.6,10.86c4.25-.06,8.55-.19,12.8,0a16.17,16.17,0,0,1,.48,4.06c-4.59-.1-9.17.45-13.75.06A16.05,16.05,0,0,1,34.6,10.86ZM36.29,9c.2.09.52,0,.56-.22.59-1.39,1.65-1.58,3.2-.57.15.26.64.26.69-.09.27-1.78,3.4-2.27,3.5.12a.39.39,0,0,0,.49.37c1.35-.31,1.81.41,2,1.5-3.79-.13-7.61,0-11.41,0C35,9.08,35.58,8.69,36.29,9ZM45,37c-1.23.12-2.5.06-3.73.06s-2.66.06-4,0S36,36.84,36,35.72a13,13,0,0,1,.4-2.23,16.77,16.77,0,0,0,.88-5.91c-.29-2.64-1.92-5-2.54-7.59a21.46,21.46,0,0,1-.62-4.26c4.56.39,9.13-.16,13.71-.06A22.84,22.84,0,0,1,47.24,20c-.63,2.57-2.26,5-2.55,7.59a16.77,16.77,0,0,0,.88,5.91,13,13,0,0,1,.4,2.23C46,36.74,46.1,36.85,45,37Z"/><path class="cls-2" d="M44.78,23.39c.08-.36.44-.69.61-1a9.1,9.1,0,0,0,.42-1,18.15,18.15,0,0,0,.57-2.53c.09-.48-.65-.69-.73-.2a16.86,16.86,0,0,1-.58,2.53,6,6,0,0,1-.55,1.21,3.15,3.15,0,0,0-.48.83C43.93,23.67,44.67,23.87,44.78,23.39Z"/><path class="cls-2" d="M46.1,17.47a.39.39,0,0,0,0-.77A.39.39,0,0,0,46.1,17.47Z"/></svg>