<svg id="Laag_1" data-name="Laag 1" xmlns="http://www.w3.org/2000/svg" viewBox="0 0 82 82"><defs><style>.cls-1{fill:#ffd500;}.cls-2{fill:#fff;}</style></defs><title>PinVelo</title><g id="Layer_2" data-name="Layer 2"><g id="Layer_1-2" data-name="Layer 1-2"><path class="cls-1" d="M41,.89H39.76c-15.6.8-25.51,17.17-19.66,31.66L39.22,80a1.85,1.85,0,0,0,1.72,1.16h0A1.87,1.87,0,0,0,42.66,80L61.88,32.59c5.88-14.49-4-30.91-19.65-31.7Z"/></g></g><path class="cls-2" d="M52.51,16.93a7.41,7.41,0,0,0-2.62.48l-2.47-5.25a.31.31,0,0,1,.08-.34l1.66-1.37A.6.6,0,0,0,49.4,10a.61.61,0,0,0-.25-.46L49,9.38a.82.82,0,0,0-.49-.16.84.84,0,0,0-.51.16l-1.88,1.48-.31.23a.46.46,0,0,0-.19.52,1,1,0,0,0,.1.29l.22.49a.17.17,0,0,1,0,.1.09.09,0,0,1-.07.06l-10.08,3a.19.19,0,0,1-.17-.12l-1-2.87A.93.93,0,0,0,34,12l.33-.08a.68.68,0,0,0,.26-.15s.19-.18,1.12-.44a4.83,4.83,0,0,0,.72-.17.46.46,0,0,0,.32-.44.48.48,0,0,0-.3-.47,4.06,4.06,0,0,0-.66-.19h-.1l-.12,0a9.17,9.17,0,0,1-2.35.33A4.52,4.52,0,0,1,32,10.25l-.11,0h-.26a1,1,0,0,0-.87.36,1,1,0,0,0-.15.81.72.72,0,0,0,.2.55,1.72,1.72,0,0,0,1.28.38,4.5,4.5,0,0,0,.69-.05h0l.56-.13-.06.06a.59.59,0,0,0-.06.52l1.67,5a.46.46,0,0,1-.11.42l-.83.8a7.49,7.49,0,0,0-5.08-2,7.62,7.62,0,1,0,7.5,8.48l.84,0a1.73,1.73,0,0,0,.32,0A2.26,2.26,0,0,0,39,24.89l8-9.91,1.4,3.13h0A7.7,7.7,0,0,0,45,24.54a7.56,7.56,0,1,0,7.56-7.61ZM28.87,30.4a5.86,5.86,0,0,1,0-11.72,5.76,5.76,0,0,1,3.8,1.44l-3,2.81,0,0a1.67,1.67,0,0,0-.8-.2,1.78,1.78,0,1,0,1.67,2.33h0l4.07.22A5.83,5.83,0,0,1,28.87,30.4Zm4.72-9.25a5.7,5.7,0,0,1,1,2.79l-3.74-.19ZM36.4,24h0a7.6,7.6,0,0,0-1.53-4.1h0l.58-.56L37,24.06S36.64,24.05,36.4,24Zm.26-5.48a.47.47,0,0,1,.11-.42l2-1.8a2.16,2.16,0,0,1,.63-.35L45,14.31,38.15,23ZM52.51,30.4a5.86,5.86,0,0,1-3.32-10.66l1.67,3.77a.61.61,0,0,0,.12.16,1.69,1.69,0,0,0-.24.87,1.77,1.77,0,1,0,1.77-1.77H52.4a.64.64,0,0,0,0-.07L50.64,19a5.74,5.74,0,0,1,1.87-.32,5.86,5.86,0,0,1,0,11.72Z"/></svg>