<svg xmlns="http://www.w3.org/2000/svg" viewBox="0 0 45.2 80.22"><defs><style>.cls-1{fill:#1b75bc;}.cls-2{fill:#fff;}</style></defs><title>Asset 2</title><g id="Layer_2" data-name="Layer 2"><g id="Layer_1-2" data-name="Layer 1"><path class="cls-1" d="M22.6,0H21.36C5.76.8-4.15,17.17,1.7,31.66l19.12,47.4a1.85,1.85,0,0,0,1.72,1.16h0a1.87,1.87,0,0,0,1.72-1.16L43.48,31.7C49.36,17.21,39.48.79,23.83,0Z"/><path class="cls-2" d="M28.52,17.2v1.69a6,6,0,0,1-4.88-2.32l-2.08,2c.46.45.86.91,1.32,1.3a1.61,1.61,0,0,1,.6,1.44c-.05,1.41,0,2.83,0,4.24v.27H21.77V21.73a.38.38,0,0,0-.14-.33l-2.37-2.1a1.73,1.73,0,0,1-.09-2.72l2.31-2.32a1.57,1.57,0,0,1,2.24,0c.61.6,1.22,1.21,1.84,1.8A4.17,4.17,0,0,0,28.3,17.2Z"/><path class="cls-2" d="M28.56,28.4a4.29,4.29,0,1,1,4.3-4.28A4.3,4.3,0,0,1,28.56,28.4Zm0-7.32a3,3,0,1,0,3,3A3,3,0,0,0,28.56,21.08Z"/><path class="cls-2" d="M16.62,28.4a4.29,4.29,0,1,1,4.29-4.26A4.3,4.3,0,0,1,16.62,28.4Zm0-7.32a3,3,0,1,0,3,3A3,3,0,0,0,16.63,21.08Z"/><path class="cls-2" d="M27.27,12.52a1.72,1.72,0,0,1-1.71,1.73,1.71,1.71,0,0,1,0-3.41A1.67,1.67,0,0,1,27.27,12.52Z"/></g></g></svg>